<svg width="306" height="296" viewBox="0 0 306 296" fill="none" xmlns="http://www.w3.org/2000/svg">
<path d="M281.36 47.7707C242.391 17.9241 204.593 42.2486 162.433 33.6482C119.969 24.9856 103.051 -3.85809 54.6851 9.45606C11.841 21.2498 -14.1555 68.5351 9.39741 108.123C16.1092 119.404 27.5431 127.914 32.2158 140.537C39.7532 160.899 28.28 176.531 30.5181 196.542C39.8182 279.686 167.276 247.481 214.175 221.613C287.727 181.044 337.484 90.7576 281.36 47.7707Z" fill="url(#paint0_linear_1905_57819)" fill-opacity="0.3"/>
<path opacity="0.24" d="M245 17C242.822 17 240.645 16.1707 238.987 14.5133C235.671 11.198 235.671 5.80293 238.987 2.48697C242.302 -0.828989 247.698 -0.828989 251.013 2.48697C254.329 5.80293 254.329 11.1974 251.013 14.5133C249.356 16.1707 247.178 17 245 17ZM245.001 5.86216C244.324 5.86216 243.649 6.11904 243.134 6.63397C242.106 7.66265 242.106 9.33706 243.134 10.3663C244.163 11.395 245.838 11.3956 246.867 10.3663C247.896 9.33764 247.896 7.66324 246.867 6.63397C246.352 6.11904 245.676 5.86216 245.001 5.86216Z" fill="#FAFCFD"/>
<path opacity="0.24" d="M32.5 205C30.1942 205 27.8878 204.171 26.1329 202.513C22.6224 199.197 22.6224 193.802 26.1329 190.486C29.6434 187.171 35.3566 187.171 38.8671 190.486C42.3776 193.802 42.3776 199.197 38.8671 202.513C37.1122 204.171 34.8058 205 32.5 205ZM32.5 193.862C31.7846 193.862 31.0686 194.119 30.524 194.634C29.4341 195.662 29.4341 197.337 30.524 198.366C31.6132 199.395 33.3868 199.395 34.476 198.366C35.5659 197.337 35.5659 195.663 34.476 194.634C33.9314 194.119 33.216 193.862 32.5 193.862Z" fill="#4498EE"/>
<path opacity="0.48" d="M57.8474 235.328C57.2016 235.71 56.4034 235.834 55.6047 235.608L50.7268 234.23L49.5869 239.169C49.2133 240.786 47.6165 241.73 46.0195 241.279C44.4222 240.828 43.43 239.151 43.8037 237.534L45.6195 229.667C45.9931 228.05 47.5899 227.105 49.1869 227.556L56.9567 229.752C58.5541 230.204 59.5462 231.881 59.1726 233.498C58.9852 234.306 58.4932 234.946 57.8474 235.328Z" fill="#FAFCFD"/>
<path opacity="0.48" d="M275.933 42.0176C275.303 42.4248 274.51 42.5795 273.703 42.3858L268.775 41.2002L267.83 46.1803C267.521 47.8106 265.962 48.8174 264.349 48.4297C262.735 48.0415 261.678 46.4049 261.987 44.7746L263.492 36.8418C263.802 35.2115 265.36 34.2047 266.974 34.5924L274.824 36.4809C276.438 36.8692 277.495 38.5057 277.185 40.136C277.03 40.9508 276.564 41.6104 275.933 42.0176Z" fill="#1E65AE"/>
<g filter="url(#filter0_dddd_1905_57819)">
<rect x="78.5" y="75.4062" width="104.081" height="127.075" rx="8" transform="rotate(-17.5626 78.5 75.4062)" fill="#FBFCFE"/>
</g>
<path fill-rule="evenodd" clip-rule="evenodd" d="M154.541 122.586L145.03 123.833C143.28 124.063 141.673 122.828 141.444 121.078C141.215 119.328 142.449 117.722 144.199 117.493L153.709 116.246C155.459 116.016 157.066 117.251 157.295 119.001C157.525 120.751 156.291 122.357 154.541 122.586ZM145.861 130.174L164.883 127.681C166.636 127.451 168.239 128.685 168.468 130.435C168.698 132.185 167.467 133.791 165.714 134.021L146.692 136.515C144.942 136.744 143.336 135.51 143.106 133.76C142.877 132.01 144.111 130.403 145.861 130.174ZM174.294 139.346L139.773 143.871C138.803 143.998 137.92 143.392 137.806 142.517L131.572 94.9619C131.457 94.0869 132.153 93.2733 133.124 93.1461L150.386 90.8832L151.695 100.87C152.348 105.853 156.737 109.399 161.483 108.777L171.901 107.412L175.849 137.53C175.963 138.405 175.267 139.218 174.294 139.346ZM157.133 93.1529L167.081 101.594L160.652 102.437C159.403 102.601 158.23 101.526 158.035 100.039L157.133 93.1529ZM176.722 101.388L156.97 84.6286C156.28 84.0449 155.381 83.779 154.484 83.8966L132.292 86.8057C127.825 87.3913 124.659 91.4246 125.231 95.7933L131.465 143.348C132.038 147.717 136.137 150.797 140.604 150.212L175.125 145.687C179.592 145.101 182.762 141.067 182.189 136.699L177.825 103.41C177.722 102.621 177.328 101.902 176.722 101.388Z" fill="#CBD5E0"/>
<g filter="url(#filter1_dddd_1905_57819)">
<rect x="98.8418" y="57.0948" width="104.081" height="127.075" rx="8" transform="rotate(-0.715089 98.8418 57.0948)" fill="#FBFCFE"/>
</g>
<path d="M148.5 128C145.929 128 143.415 127.208 141.278 125.725C139.14 124.242 137.474 122.133 136.49 119.666C135.506 117.2 135.248 114.485 135.75 111.866C136.251 109.248 137.49 106.842 139.308 104.954C141.126 103.066 143.442 101.78 145.964 101.26C148.486 100.739 151.099 101.006 153.475 102.028C155.85 103.05 157.881 104.78 159.309 107C160.738 109.22 161.5 111.83 161.5 114.5C161.491 118.078 160.118 121.506 157.682 124.036C155.246 126.565 151.945 127.991 148.5 128ZM148.5 108.143C147.289 108.143 146.106 108.516 145.099 109.214C144.092 109.913 143.308 110.906 142.844 112.067C142.381 113.229 142.26 114.507 142.496 115.74C142.732 116.974 143.315 118.106 144.171 118.995C145.027 119.884 146.118 120.49 147.306 120.735C148.493 120.98 149.724 120.855 150.843 120.373C151.961 119.892 152.917 119.077 153.59 118.032C154.263 116.987 154.622 115.757 154.622 114.5C154.622 112.814 153.977 111.197 152.829 110.005C151.681 108.813 150.124 108.143 148.5 108.143Z" fill="#CBD5E0"/>
<path d="M166 143C165.072 143 164.182 142.624 163.525 141.954C162.869 141.284 162.5 140.376 162.5 139.429C162.5 137.815 162.189 136.218 161.584 134.727C160.978 133.237 160.092 131.882 158.974 130.741C157.856 129.601 156.528 128.696 155.068 128.078C153.607 127.461 152.041 127.143 150.46 127.143H146.54C143.347 127.143 140.284 128.437 138.026 130.741C135.768 133.045 134.5 136.17 134.5 139.429C134.5 140.376 134.131 141.284 133.475 141.954C132.818 142.624 131.928 143 131 143C130.072 143 129.182 142.624 128.525 141.954C127.869 141.284 127.5 140.376 127.5 139.429C127.509 134.279 129.518 129.343 133.087 125.701C136.656 122.06 141.493 120.01 146.54 120H150.46C155.507 120.01 160.344 122.06 163.913 125.701C167.482 129.343 169.491 134.279 169.5 139.429C169.5 140.376 169.131 141.284 168.475 141.954C167.819 142.624 166.928 143 166 143Z" fill="#CBD5E0"/>
<path d="M168.411 154H128.589C125.386 153.991 122.316 152.714 120.051 150.449C117.786 148.184 116.509 145.115 116.5 141.911V102.089C116.509 98.8857 117.786 95.8163 120.051 93.5512C122.316 91.2862 125.386 90.0095 128.589 90.0001H168.411C171.614 90.0095 174.684 91.2862 176.949 93.5512C179.214 95.8163 180.491 98.8857 180.5 102.089V141.911C180.491 145.115 179.214 148.184 176.949 150.449C174.684 152.714 171.614 153.991 168.411 154ZM128.589 97.1112C127.269 97.1112 126.003 97.6357 125.069 98.5692C124.136 99.5027 123.611 100.769 123.611 102.089V141.911C123.611 143.231 124.136 144.498 125.069 145.431C126.003 146.365 127.269 146.889 128.589 146.889H168.411C169.731 146.889 170.997 146.365 171.931 145.431C172.864 144.498 173.389 143.231 173.389 141.911V102.089C173.389 100.769 172.864 99.5027 171.931 98.5692C170.997 97.6357 169.731 97.1112 168.411 97.1112H128.589Z" fill="#CBD5E0"/>
<path d="M184 118H177C176.072 118 175.182 117.631 174.525 116.975C173.869 116.319 173.5 115.428 173.5 114.5C173.5 113.572 173.869 112.682 174.525 112.025C175.182 111.369 176.072 111 177 111H184C184.928 111 185.818 111.369 186.475 112.025C187.131 112.682 187.5 113.572 187.5 114.5C187.5 115.428 187.131 116.319 186.475 116.975C185.818 117.631 184.928 118 184 118Z" fill="#CBD5E0"/>
<path d="M184 136H177C176.072 136 175.182 135.631 174.525 134.975C173.869 134.319 173.5 133.428 173.5 132.5C173.5 131.572 173.869 130.682 174.525 130.025C175.182 129.369 176.072 129 177 129H184C184.928 129 185.818 129.369 186.475 130.025C187.131 130.682 187.5 131.572 187.5 132.5C187.5 133.428 187.131 134.319 186.475 134.975C185.818 135.631 184.928 136 184 136Z" fill="#CBD5E0"/>
<path opacity="0.48" d="M262 173C259.824 173.001 257.647 172.171 255.99 170.513C254.384 168.907 253.5 166.772 253.5 164.5C253.5 162.229 254.384 160.093 255.99 158.487C259.303 155.171 264.696 155.171 268.01 158.487C269.616 160.093 270.5 162.229 270.5 164.5C270.5 166.772 269.616 168.907 268.01 170.513C266.354 172.171 264.177 173 262 173ZM262 161.862C261.325 161.862 260.649 162.119 260.135 162.634C259.636 163.132 259.362 163.795 259.362 164.5C259.362 165.205 259.637 165.868 260.135 166.366C261.164 167.396 262.837 167.396 263.866 166.366C264.365 165.868 264.638 165.205 264.638 164.5C264.638 163.795 264.364 163.133 263.866 162.634C263.352 162.119 262.676 161.862 262 161.862Z" fill="#CBD5E0"/>
<defs>
<filter id="filter0_dddd_1905_57819" x="15.5391" y="17.0391" width="263.496" height="278.48" filterUnits="userSpaceOnUse" color-interpolation-filters="sRGB">
<feFlood flood-opacity="0" result="BackgroundImageFix"/>
<feColorMatrix in="SourceAlpha" type="matrix" values="0 0 0 0 0 0 0 0 0 0 0 0 0 0 0 0 0 0 127 0" result="hardAlpha"/>
<feOffset dy="1.575"/>
<feGaussianBlur stdDeviation="1.87891"/>
<feColorMatrix type="matrix" values="0 0 0 0 0.415686 0 0 0 0 0.654902 0 0 0 0 0.772549 0 0 0 0.03 0"/>
<feBlend mode="normal" in2="BackgroundImageFix" result="effect1_dropShadow_1905_57819"/>
<feColorMatrix in="SourceAlpha" type="matrix" values="0 0 0 0 0 0 0 0 0 0 0 0 0 0 0 0 0 0 127 0" result="hardAlpha"/>
<feOffset dy="7.2"/>
<feGaussianBlur stdDeviation="5.28125"/>
<feColorMatrix type="matrix" values="0 0 0 0 0.415686 0 0 0 0 0.654902 0 0 0 0 0.772549 0 0 0 0.08 0"/>
<feBlend mode="normal" in2="effect1_dropShadow_1905_57819" result="effect2_dropShadow_1905_57819"/>
<feColorMatrix in="SourceAlpha" type="matrix" values="0 0 0 0 0 0 0 0 0 0 0 0 0 0 0 0 0 0 127 0" result="hardAlpha"/>
<feOffset dy="18.225"/>
<feGaussianBlur stdDeviation="14.168"/>
<feColorMatrix type="matrix" values="0 0 0 0 0.415686 0 0 0 0 0.654902 0 0 0 0 0.772549 0 0 0 0.12 0"/>
<feBlend mode="normal" in2="effect2_dropShadow_1905_57819" result="effect3_dropShadow_1905_57819"/>
<feColorMatrix in="SourceAlpha" type="matrix" values="0 0 0 0 0 0 0 0 0 0 0 0 0 0 0 0 0 0 127 0" result="hardAlpha"/>
<feOffset dy="36"/>
<feGaussianBlur stdDeviation="32.5"/>
<feColorMatrix type="matrix" values="0 0 0 0 0.415686 0 0 0 0 0.654902 0 0 0 0 0.772549 0 0 0 0.16 0"/>
<feBlend mode="normal" in2="effect3_dropShadow_1905_57819" result="effect4_dropShadow_1905_57819"/>
<feBlend mode="normal" in="SourceGraphic" in2="effect4_dropShadow_1905_57819" result="shape"/>
</filter>
<filter id="filter1_dddd_1905_57819" x="33.9414" y="26.8951" width="235.46" height="258.166" filterUnits="userSpaceOnUse" color-interpolation-filters="sRGB">
<feFlood flood-opacity="0" result="BackgroundImageFix"/>
<feColorMatrix in="SourceAlpha" type="matrix" values="0 0 0 0 0 0 0 0 0 0 0 0 0 0 0 0 0 0 127 0" result="hardAlpha"/>
<feOffset dy="1.575"/>
<feGaussianBlur stdDeviation="1.87891"/>
<feColorMatrix type="matrix" values="0 0 0 0 0.415686 0 0 0 0 0.654902 0 0 0 0 0.772549 0 0 0 0.03 0"/>
<feBlend mode="normal" in2="BackgroundImageFix" result="effect1_dropShadow_1905_57819"/>
<feColorMatrix in="SourceAlpha" type="matrix" values="0 0 0 0 0 0 0 0 0 0 0 0 0 0 0 0 0 0 127 0" result="hardAlpha"/>
<feOffset dy="7.2"/>
<feGaussianBlur stdDeviation="5.28125"/>
<feColorMatrix type="matrix" values="0 0 0 0 0.415686 0 0 0 0 0.654902 0 0 0 0 0.772549 0 0 0 0.08 0"/>
<feBlend mode="normal" in2="effect1_dropShadow_1905_57819" result="effect2_dropShadow_1905_57819"/>
<feColorMatrix in="SourceAlpha" type="matrix" values="0 0 0 0 0 0 0 0 0 0 0 0 0 0 0 0 0 0 127 0" result="hardAlpha"/>
<feOffset dy="18.225"/>
<feGaussianBlur stdDeviation="14.168"/>
<feColorMatrix type="matrix" values="0 0 0 0 0.415686 0 0 0 0 0.654902 0 0 0 0 0.772549 0 0 0 0.12 0"/>
<feBlend mode="normal" in2="effect2_dropShadow_1905_57819" result="effect3_dropShadow_1905_57819"/>
<feColorMatrix in="SourceAlpha" type="matrix" values="0 0 0 0 0 0 0 0 0 0 0 0 0 0 0 0 0 0 127 0" result="hardAlpha"/>
<feOffset dy="36"/>
<feGaussianBlur stdDeviation="32.5"/>
<feColorMatrix type="matrix" values="0 0 0 0 0.415686 0 0 0 0 0.654902 0 0 0 0 0.772549 0 0 0 0.16 0"/>
<feBlend mode="normal" in2="effect3_dropShadow_1905_57819" result="effect4_dropShadow_1905_57819"/>
<feBlend mode="normal" in="SourceGraphic" in2="effect4_dropShadow_1905_57819" result="shape"/>
</filter>
<linearGradient id="paint0_linear_1905_57819" x1="209.431" y1="293.4" x2="334.265" y2="29.6322" gradientUnits="userSpaceOnUse">
<stop stop-color="#E1E8F2"/>
<stop offset="1" stop-color="#E2E8F0" stop-opacity="0"/>
</linearGradient>
</defs>
</svg>
