<svg width="271" height="237" viewBox="0 0 271 237" fill="none" xmlns="http://www.w3.org/2000/svg">
<path d="M154.147 14.677C154.147 14.677 248.901 56.0422 249.677 96.5211C250.452 137 162.292 118.681 189.499 137.295C217.759 156.648 227.179 193.68 202.964 209.291C169.607 230.81 104.165 190.233 113.53 200.476C133.644 222.439 135.528 240.167 108.432 236.523C72.6914 231.746 7.6379 189.839 11.0734 171.766C14.509 153.743 63.5484 159.209 39.6105 142.121C-16.1337 102.332 -8.3761 42.2046 40.8296 50.9701C60.5562 54.4664 109.374 74.2626 96.7955 51.2163C76.1269 13.3966 79.1745 -20.2865 154.147 14.677Z" fill="#F0F4F9"/>
<path d="M167.24 167.084C166.85 167.084 166.546 166.781 166.546 166.434C166.546 166.044 166.806 165.741 167.196 165.698H167.283C167.673 165.698 167.976 165.958 168.019 166.348C168.019 166.738 167.759 167.041 167.37 167.084H167.24C167.283 167.084 167.24 167.084 167.24 167.084ZM160.222 167.084H160.092C159.702 167.084 159.399 166.738 159.442 166.348C159.442 165.958 159.789 165.655 160.178 165.698H160.308C160.698 165.698 161.002 166.044 160.958 166.434C160.915 166.781 160.612 167.084 160.222 167.084ZM174.301 166.434C173.954 166.434 173.651 166.174 173.608 165.828C173.564 165.438 173.824 165.091 174.214 165.048H174.301C174.691 165.005 175.037 165.265 175.081 165.655C175.124 166.044 174.864 166.391 174.474 166.434H174.387C174.387 166.434 174.344 166.434 174.301 166.434ZM153.161 166.434C153.117 166.434 153.117 166.434 153.074 166.434H152.987C152.597 166.391 152.338 166.044 152.381 165.655C152.424 165.265 152.771 165.005 153.161 165.048H153.247C153.637 165.091 153.897 165.438 153.854 165.828C153.81 166.174 153.507 166.434 153.161 166.434ZM181.319 165.091C181.015 165.091 180.712 164.875 180.625 164.571C180.539 164.182 180.755 163.835 181.145 163.705L181.275 163.662C181.665 163.575 182.012 163.792 182.098 164.182C182.185 164.571 181.968 164.918 181.579 165.005L181.492 165.048C181.405 165.091 181.362 165.091 181.319 165.091ZM146.186 165.091C146.143 165.091 146.056 165.091 146.013 165.091L145.926 165.048C145.536 164.961 145.32 164.571 145.406 164.225C145.493 163.878 145.883 163.618 146.229 163.705L146.316 163.748C146.706 163.835 146.923 164.225 146.836 164.571C146.793 164.875 146.489 165.091 146.186 165.091ZM188.12 163.098C187.817 163.098 187.557 162.925 187.47 162.622C187.34 162.275 187.557 161.842 187.903 161.755L187.99 161.712C188.336 161.582 188.77 161.755 188.9 162.145C189.03 162.492 188.856 162.925 188.466 163.055L188.38 163.098C188.293 163.098 188.206 163.098 188.12 163.098ZM139.342 163.098C139.255 163.098 139.168 163.098 139.125 163.055L139.038 163.012C138.692 162.882 138.475 162.492 138.605 162.145C138.735 161.799 139.125 161.582 139.471 161.712L139.558 161.755C139.905 161.885 140.121 162.275 139.991 162.665C139.905 162.925 139.645 163.098 139.342 163.098ZM194.748 160.456C194.488 160.456 194.228 160.282 194.098 160.066C193.925 159.719 194.098 159.286 194.445 159.156L194.531 159.113C194.878 158.939 195.311 159.113 195.441 159.459C195.614 159.806 195.441 160.239 195.094 160.369L195.008 160.412C194.921 160.456 194.834 160.456 194.748 160.456ZM132.757 160.456C132.67 160.456 132.54 160.456 132.454 160.412L132.367 160.369C132.02 160.196 131.847 159.806 132.02 159.459C132.194 159.113 132.584 158.939 132.93 159.113L133.017 159.156C133.363 159.329 133.537 159.719 133.363 160.066C133.277 160.282 133.017 160.456 132.757 160.456ZM201.072 157.206C200.813 157.206 200.596 157.076 200.466 156.86C200.249 156.513 200.379 156.08 200.726 155.907L200.813 155.863C201.159 155.69 201.592 155.777 201.766 156.123C201.939 156.47 201.852 156.903 201.506 157.076L201.419 157.12C201.289 157.163 201.159 157.206 201.072 157.206ZM126.432 157.206C126.302 157.206 126.172 157.163 126.086 157.12L125.999 157.076C125.652 156.903 125.566 156.47 125.739 156.123C125.912 155.777 126.346 155.69 126.692 155.863L126.779 155.907C127.125 156.08 127.212 156.513 127.039 156.86C126.909 157.076 126.649 157.206 126.432 157.206ZM207.051 153.351C206.834 153.351 206.617 153.264 206.487 153.047C206.271 152.744 206.358 152.311 206.661 152.094L206.747 152.051C207.051 151.834 207.484 151.878 207.7 152.224C207.917 152.527 207.83 152.961 207.527 153.177L207.441 153.221C207.311 153.307 207.181 153.351 207.051 153.351ZM120.454 153.351C120.324 153.351 120.151 153.307 120.064 153.221L119.978 153.177C119.674 152.961 119.588 152.527 119.804 152.224C120.021 151.921 120.454 151.834 120.757 152.051L120.844 152.094C121.147 152.311 121.234 152.744 121.017 153.047C120.887 153.221 120.671 153.351 120.454 153.351ZM212.639 148.975C212.466 148.975 212.249 148.888 212.119 148.758C211.859 148.455 211.902 148.022 212.162 147.762L212.249 147.675C212.552 147.415 212.985 147.459 213.245 147.762C213.505 148.065 213.462 148.498 213.159 148.758L213.072 148.802C212.942 148.888 212.812 148.975 212.639 148.975ZM114.866 148.932C114.692 148.932 114.563 148.888 114.433 148.758L114.346 148.672C114.043 148.412 114.043 147.978 114.303 147.675C114.563 147.372 114.996 147.372 115.299 147.632L115.386 147.675C115.689 147.935 115.732 148.368 115.472 148.672C115.256 148.845 115.039 148.932 114.866 148.932ZM217.794 144.079C217.621 144.079 217.447 144.036 217.317 143.906C217.058 143.646 217.014 143.213 217.274 142.91L217.361 142.823C217.621 142.563 218.054 142.52 218.357 142.823C218.617 143.083 218.66 143.516 218.357 143.819L218.271 143.906C218.141 143.993 217.967 144.079 217.794 144.079ZM109.711 144.036C109.537 144.036 109.364 143.949 109.191 143.819L109.104 143.733C108.844 143.473 108.844 142.996 109.148 142.736C109.407 142.476 109.884 142.476 110.144 142.78L110.231 142.866C110.49 143.126 110.49 143.603 110.231 143.863C110.057 143.993 109.884 144.036 109.711 144.036ZM222.429 138.707C222.299 138.707 222.126 138.664 221.996 138.577C221.693 138.361 221.649 137.884 221.866 137.581L221.953 137.494C222.213 137.191 222.646 137.147 222.949 137.364C223.252 137.624 223.296 138.057 223.079 138.361L223.036 138.447C222.862 138.62 222.646 138.707 222.429 138.707ZM105.032 138.664C104.816 138.664 104.642 138.577 104.469 138.404L104.382 138.317C104.122 138.014 104.209 137.581 104.512 137.321C104.816 137.061 105.249 137.147 105.509 137.451L105.552 137.537C105.812 137.841 105.725 138.274 105.422 138.534C105.335 138.62 105.205 138.664 105.032 138.664ZM226.588 132.902C226.458 132.902 226.328 132.858 226.198 132.772C225.895 132.555 225.765 132.122 225.981 131.819L226.025 131.732C226.241 131.429 226.675 131.299 226.978 131.515C227.281 131.732 227.411 132.165 227.194 132.468L227.151 132.555C227.021 132.772 226.805 132.902 226.588 132.902ZM100.917 132.902C100.7 132.902 100.484 132.772 100.31 132.598L100.267 132.512C100.05 132.165 100.137 131.775 100.484 131.559C100.83 131.342 101.22 131.429 101.437 131.775L101.48 131.862C101.696 132.165 101.61 132.598 101.263 132.815C101.177 132.858 101.047 132.902 100.917 132.902ZM230.14 126.75C230.01 126.75 229.924 126.706 229.837 126.663C229.49 126.49 229.36 126.057 229.534 125.71L229.577 125.623C229.75 125.277 230.184 125.147 230.53 125.32C230.877 125.493 231.007 125.927 230.833 126.273L230.79 126.36C230.66 126.62 230.4 126.75 230.14 126.75ZM97.3212 126.75C97.0612 126.75 96.8446 126.62 96.7147 126.36L96.6714 126.273C96.4981 125.927 96.628 125.493 96.9746 125.32C97.3212 125.147 97.7544 125.277 97.9276 125.623L97.971 125.71C98.1442 126.057 98.0143 126.49 97.6677 126.663C97.5378 126.706 97.4511 126.75 97.3212 126.75ZM233.129 120.294C233.043 120.294 232.956 120.294 232.869 120.251C232.523 120.121 232.35 119.688 232.479 119.341L232.523 119.255C232.653 118.908 233.086 118.735 233.433 118.865C233.779 118.995 233.952 119.428 233.822 119.775L233.779 119.861C233.649 120.121 233.389 120.294 233.129 120.294ZM94.3754 120.251C94.1155 120.251 93.8556 120.078 93.7256 119.818L93.6823 119.731C93.5523 119.385 93.7256 118.951 94.0722 118.821C94.4187 118.691 94.8519 118.865 94.9819 119.211L95.0252 119.298C95.1552 119.645 94.9819 120.078 94.6353 120.208C94.5487 120.251 94.462 120.251 94.3754 120.251ZM235.469 113.579C235.382 113.579 235.339 113.579 235.252 113.536C234.862 113.406 234.689 113.059 234.775 112.669L234.819 112.583C234.905 112.193 235.339 112.02 235.685 112.106C236.075 112.236 236.248 112.583 236.162 112.973L236.118 113.059C236.032 113.363 235.772 113.579 235.469 113.579ZM92.0361 113.536C91.7329 113.536 91.473 113.319 91.3863 113.016L91.343 112.929C91.213 112.54 91.4296 112.193 91.8195 112.063C92.2094 111.933 92.556 112.15 92.6859 112.54L92.7292 112.626C92.8592 113.016 92.6426 113.363 92.2527 113.493C92.1661 113.536 92.1228 113.536 92.0361 113.536ZM237.158 106.647C237.115 106.647 237.071 106.647 237.028 106.647C236.638 106.561 236.422 106.214 236.465 105.824V105.738C236.552 105.348 236.898 105.131 237.288 105.174C237.678 105.261 237.894 105.608 237.851 105.998V106.128C237.765 106.431 237.461 106.647 237.158 106.647ZM90.3466 106.647C90.0001 106.647 89.7402 106.431 89.6535 106.084V105.998C89.5669 105.608 89.8268 105.261 90.2167 105.174C90.6066 105.088 90.9531 105.348 91.0398 105.738V105.868C91.1264 106.258 90.8665 106.604 90.4766 106.691C90.4333 106.647 90.39 106.647 90.3466 106.647ZM238.154 99.629H238.111C237.721 99.5857 237.461 99.2391 237.461 98.8925V98.7625C237.505 98.3726 237.851 98.1127 238.241 98.156C238.631 98.1993 238.891 98.5459 238.847 98.9358V99.0225C238.804 99.369 238.501 99.629 238.154 99.629ZM89.3503 99.5857C89.0037 99.5857 88.7005 99.3257 88.6572 98.9358V98.8058C88.6138 98.4159 88.9171 98.0693 89.307 98.0693C89.6968 98.026 90.0434 98.3293 90.0434 98.7192V98.8058C90.0867 99.1958 89.7835 99.5424 89.4369 99.5857C89.3936 99.5857 89.3503 99.5857 89.3503 99.5857ZM238.501 92.5239C238.111 92.5239 237.808 92.2206 237.808 91.8307V91.7441V91.7007V91.5708C237.808 91.1808 238.111 90.8776 238.501 90.8776C238.891 90.8776 239.194 91.1808 239.194 91.5708V91.6574V91.7007C239.194 91.7007 239.194 91.7007 239.194 91.7441V91.8307C239.194 92.2206 238.891 92.5239 238.501 92.5239ZM89.0037 92.4806C88.6138 92.4806 88.3106 92.1773 88.3106 91.7874V91.7007L89.0037 91.6574H89.6968V91.7441C89.6968 92.1773 89.3936 92.4806 89.0037 92.4806ZM89.3503 85.3755C89.307 85.3755 89.307 85.3755 89.2636 85.3755C88.8738 85.3321 88.6138 84.9855 88.6572 84.5956V84.509C88.7005 84.1191 89.047 83.8158 89.3936 83.8591C89.7835 83.9024 90.0434 84.249 90.0434 84.5956V84.7256C90.0001 85.1155 89.6968 85.3755 89.3503 85.3755ZM238.154 85.2455C237.808 85.2455 237.505 84.9855 237.461 84.5956V84.509C237.418 84.1191 237.721 83.7725 238.068 83.7291C238.458 83.6858 238.804 83.9891 238.847 84.3357V84.4223C238.891 84.8122 238.588 85.1588 238.241 85.2022C238.198 85.2455 238.154 85.2455 238.154 85.2455ZM90.3466 78.357C90.3033 78.357 90.26 78.357 90.2167 78.357C89.8268 78.2703 89.6102 77.9238 89.6535 77.5338V77.4039C89.7402 77.014 90.0867 76.7973 90.4766 76.8407C90.8665 76.9273 91.0831 77.2739 91.0398 77.6638V77.7505C90.9531 78.1404 90.6499 78.357 90.3466 78.357ZM237.158 78.227C236.811 78.227 236.552 78.0104 236.465 77.6638V77.5772C236.378 77.1872 236.638 76.8407 237.028 76.754C237.418 76.6674 237.765 76.9273 237.851 77.3172V77.4472C237.938 77.8371 237.678 78.1837 237.288 78.2703C237.245 78.227 237.201 78.227 237.158 78.227ZM91.9928 71.4252C91.9062 71.4252 91.8628 71.4252 91.7762 71.3819C91.3863 71.2519 91.213 70.9053 91.2997 70.5154L91.343 70.4287C91.4296 70.0388 91.8195 69.8222 92.2094 69.9522C92.5993 70.0388 92.8159 70.4287 92.6859 70.8186L92.6426 70.9053C92.556 71.2519 92.296 71.4252 91.9928 71.4252ZM235.469 71.2952C235.165 71.2952 234.905 71.0786 234.819 70.7753L234.775 70.6887C234.645 70.2988 234.862 69.9522 235.252 69.8222C235.642 69.6922 235.988 69.9088 236.118 70.2988L236.162 70.3854C236.292 70.7753 236.075 71.1219 235.685 71.2519C235.599 71.2952 235.512 71.2952 235.469 71.2952ZM94.2888 64.71C94.2021 64.71 94.1155 64.71 94.0288 64.6667C93.6823 64.5367 93.509 64.1034 93.639 63.7569L93.6823 63.6702C93.8122 63.3236 94.2454 63.1503 94.592 63.2803C94.9386 63.4103 95.1118 63.8435 94.9819 64.1901L94.9386 64.2767C94.8519 64.5367 94.592 64.71 94.2888 64.71ZM233.129 64.58C232.869 64.58 232.609 64.4067 232.479 64.1468L232.436 64.0601C232.306 63.7135 232.479 63.2803 232.826 63.1503C233.173 63.0204 233.606 63.1936 233.736 63.5402L233.779 63.6269C233.909 63.9735 233.736 64.4067 233.389 64.5367C233.303 64.58 233.216 64.58 233.129 64.58ZM97.2345 58.2547C97.1479 58.2547 97.0179 58.2114 96.9313 58.1681C96.5847 57.9948 96.4548 57.5615 96.628 57.215L96.6714 57.1283C96.8446 56.7817 97.2778 56.6517 97.6244 56.825C97.971 56.9983 98.1009 57.4316 97.9276 57.7782L97.8843 57.8648C97.7544 58.1248 97.4944 58.2547 97.2345 58.2547ZM230.184 58.1248C229.924 58.1248 229.707 57.9948 229.577 57.7348L229.534 57.6482C229.36 57.3016 229.49 56.8684 229.837 56.6951C230.184 56.5218 230.617 56.6517 230.79 56.9983L230.833 57.085C231.007 57.4316 230.877 57.8648 230.53 58.0381C230.4 58.0814 230.27 58.1248 230.184 58.1248ZM100.83 52.1027C100.7 52.1027 100.57 52.0594 100.44 51.9728C100.137 51.7561 100.007 51.3229 100.224 51.0196L100.267 50.933C100.484 50.5864 100.917 50.4998 101.22 50.7164C101.523 50.933 101.653 51.3662 101.437 51.6695L101.393 51.7561C101.263 51.9728 101.047 52.1027 100.83 52.1027ZM226.631 51.9728C226.415 51.9728 226.155 51.8428 226.025 51.6695L225.981 51.5829C225.765 51.2796 225.852 50.8463 226.198 50.6297C226.501 50.4131 226.935 50.4998 227.151 50.8463L227.194 50.933C227.411 51.2363 227.324 51.6695 226.978 51.8861C226.891 51.9294 226.761 51.9728 226.631 51.9728ZM104.945 46.2973C104.772 46.2973 104.642 46.254 104.512 46.1674C104.209 45.9074 104.166 45.4742 104.382 45.1709L104.426 45.0843C104.642 44.781 105.119 44.7377 105.422 44.9543C105.725 45.1709 105.769 45.6475 105.552 45.9508L105.465 46.0374C105.335 46.2107 105.119 46.2973 104.945 46.2973ZM222.473 46.1674C222.256 46.1674 222.083 46.0807 221.909 45.9074L221.866 45.8208C221.606 45.5175 221.693 45.0843 221.996 44.8243C222.299 44.5644 222.732 44.651 222.992 44.9543L223.079 45.041C223.339 45.3442 223.252 45.7775 222.949 46.0374C222.776 46.1241 222.646 46.1674 222.473 46.1674ZM109.581 40.9252C109.407 40.9252 109.234 40.8819 109.104 40.7519C108.844 40.492 108.801 40.0587 109.061 39.7554L109.148 39.6688C109.407 39.4089 109.841 39.3655 110.144 39.6255C110.404 39.8854 110.447 40.3187 110.187 40.6219L110.101 40.7086C109.971 40.8385 109.754 40.9252 109.581 40.9252ZM217.794 40.7952C217.621 40.7952 217.404 40.7086 217.274 40.5786L217.188 40.492C216.928 40.232 216.928 39.7554 217.188 39.4955C217.447 39.2356 217.924 39.2356 218.184 39.4955L218.271 39.5822C218.53 39.8421 218.53 40.3187 218.227 40.5786C218.141 40.7519 217.967 40.7952 217.794 40.7952ZM114.736 35.9863C114.519 35.9863 114.346 35.8996 114.216 35.7263C113.956 35.4231 113.999 34.9898 114.303 34.7299L114.389 34.6866C114.692 34.4266 115.126 34.4699 115.386 34.7299C115.646 35.0331 115.602 35.4664 115.342 35.7263L115.256 35.813C115.039 35.9429 114.866 35.9863 114.736 35.9863ZM212.682 35.8996C212.509 35.8996 212.336 35.8563 212.206 35.7263L212.119 35.6397C211.816 35.3797 211.773 34.9465 212.032 34.6432C212.292 34.34 212.726 34.2966 213.029 34.5566L213.115 34.6432C213.419 34.9032 213.419 35.3364 213.202 35.6397C213.072 35.813 212.856 35.8996 212.682 35.8996ZM120.324 31.5672C120.107 31.5672 119.891 31.4806 119.761 31.264C119.544 30.9607 119.588 30.5275 119.934 30.3108L120.021 30.2675C120.324 30.0509 120.757 30.1376 120.974 30.4408C121.19 30.7441 121.104 31.1773 120.801 31.3939L120.714 31.4373C120.584 31.5239 120.454 31.5672 120.324 31.5672ZM207.094 31.4806C206.964 31.4806 206.834 31.4373 206.704 31.3506L206.617 31.3073C206.314 31.0907 206.228 30.6574 206.444 30.3542C206.661 30.0509 207.094 29.9643 207.397 30.1809L207.484 30.2242C207.787 30.4408 207.874 30.8741 207.657 31.1773C207.527 31.3939 207.311 31.4806 207.094 31.4806ZM126.259 27.7114C125.999 27.7114 125.782 27.5814 125.652 27.3648C125.479 27.0182 125.566 26.585 125.912 26.4117L125.999 26.3684C126.346 26.1518 126.779 26.2817 126.952 26.6283C127.169 26.9749 127.039 27.4082 126.692 27.5814L126.605 27.6248C126.519 27.7114 126.389 27.7114 126.259 27.7114ZM201.072 27.6681C200.943 27.6681 200.856 27.6248 200.726 27.5814L200.639 27.5381C200.293 27.3648 200.206 26.9316 200.379 26.585C200.553 26.2384 200.986 26.1518 201.332 26.3251L201.419 26.3684C201.766 26.5417 201.852 26.9749 201.679 27.3215C201.592 27.5381 201.332 27.6681 201.072 27.6681ZM132.584 24.4621C132.324 24.4621 132.064 24.3322 131.934 24.0722C131.761 23.7256 131.934 23.2924 132.28 23.1624L132.367 23.1191C132.714 22.9458 133.147 23.1191 133.277 23.4657C133.45 23.8123 133.277 24.2455 132.93 24.3755L132.844 24.4188C132.8 24.4188 132.67 24.4621 132.584 24.4621ZM194.791 24.3755C194.704 24.3755 194.618 24.3755 194.488 24.3322L194.401 24.2888C194.055 24.1155 193.881 23.7256 194.055 23.379C194.228 23.0324 194.618 22.8591 194.964 23.0324L195.051 23.0758C195.398 23.2491 195.571 23.639 195.398 23.9856C195.311 24.2455 195.051 24.3755 194.791 24.3755ZM139.168 21.7761C138.865 21.7761 138.605 21.6028 138.518 21.2995C138.388 20.9529 138.562 20.5197 138.952 20.3897L139.038 20.3464C139.385 20.2164 139.818 20.433 139.905 20.7796C140.035 21.1262 139.818 21.5594 139.471 21.6461L139.385 21.6894C139.342 21.7761 139.255 21.7761 139.168 21.7761ZM188.163 21.7327C188.076 21.7327 188.033 21.7327 187.947 21.6894L187.86 21.6461C187.513 21.5161 187.297 21.1262 187.427 20.7363C187.557 20.3897 187.947 20.1731 188.336 20.303L188.423 20.3464C188.77 20.4763 188.986 20.8663 188.856 21.2128C188.726 21.5594 188.466 21.7327 188.163 21.7327ZM146.013 19.7832C145.71 19.7832 145.406 19.5665 145.32 19.2633C145.233 18.8734 145.45 18.5268 145.84 18.4401L145.926 18.3968C146.316 18.3101 146.663 18.5268 146.793 18.9167C146.879 19.3066 146.663 19.6532 146.273 19.7832L146.143 19.8265C146.099 19.7832 146.056 19.7832 146.013 19.7832ZM181.362 19.7398C181.319 19.7398 181.232 19.7398 181.189 19.7398L181.102 19.6965C180.712 19.6099 180.495 19.2199 180.582 18.8734C180.669 18.4834 181.059 18.2668 181.405 18.3535L181.492 18.3968C181.882 18.4834 182.098 18.8734 182.012 19.2199C181.968 19.5232 181.665 19.7398 181.362 19.7398ZM152.987 18.4401C152.641 18.4401 152.338 18.1802 152.294 17.8336C152.251 17.4437 152.511 17.0971 152.901 17.0538H153.031C153.421 17.0104 153.767 17.2704 153.81 17.6603C153.854 18.0502 153.594 18.3968 153.204 18.4401H153.117C153.074 18.4401 153.031 18.4401 152.987 18.4401ZM174.344 18.3968C174.301 18.3968 174.257 18.3968 174.257 18.3968H174.171C173.781 18.3535 173.521 18.0069 173.564 17.617C173.608 17.227 173.954 16.9671 174.344 17.0104H174.474C174.864 17.0538 175.124 17.4003 175.081 17.7903C174.994 18.1802 174.691 18.3968 174.344 18.3968ZM160.048 17.7469C159.659 17.7469 159.355 17.4437 159.355 17.0971C159.355 16.7072 159.615 16.4039 160.005 16.3606H160.092C160.482 16.3606 160.785 16.6205 160.828 17.0104C160.828 17.4003 160.568 17.7036 160.178 17.7469H160.048C160.092 17.7469 160.092 17.7469 160.048 17.7469ZM167.283 17.7469H167.153C166.763 17.7469 166.46 17.4003 166.503 17.0104C166.503 16.6205 166.85 16.3172 167.24 16.3606H167.326C167.716 16.3606 168.019 16.7072 167.976 17.0971C167.976 17.4437 167.673 17.7469 167.283 17.7469Z" fill="#C5D3DE"/>
<path d="M154.243 124.367C153.42 124.367 152.727 125.06 152.727 125.883C152.727 126.793 153.723 127.919 154.113 128.396L154.156 128.439C154.199 128.482 154.2 128.482 154.243 128.482C154.286 128.482 154.329 128.482 154.329 128.439C154.329 128.439 154.329 128.439 154.373 128.396C154.806 127.963 155.759 126.793 155.759 125.883C155.759 125.06 155.066 124.367 154.243 124.367ZM154.893 126.143L154.503 126.533C154.416 126.62 154.329 126.62 154.243 126.62C154.156 126.62 154.07 126.576 153.983 126.533L153.593 126.143C153.463 126.013 153.463 125.753 153.593 125.623L153.983 125.233C154.07 125.147 154.156 125.147 154.243 125.147C154.329 125.147 154.416 125.19 154.503 125.233L154.893 125.623C155.023 125.753 155.023 125.97 154.893 126.143Z" fill="#C5D3DE"/>
<g filter="url(#filter0_dd_1_1964)">
<g filter="url(#filter1_dd_1_1964)">
<path d="M248.639 45.1118H32.8407C30.3084 45.1118 28.2715 47.1489 28.2715 49.6814V181.209C28.2715 183.741 30.3084 185.779 32.8407 185.779H248.639C251.171 185.779 253.208 183.741 253.208 181.209V49.6814C253.208 47.2039 251.171 45.1118 248.639 45.1118Z" fill="#F7FAFC"/>
</g>
<path d="M253.208 49.6814C253.208 47.1489 251.171 45.1118 248.639 45.1118H32.8407C30.3084 45.1118 28.2715 47.1489 28.2715 49.6814V55.9027H253.208V49.6814Z" fill="#1E65AE"/>
<path d="M37.5753 51.057C37.9056 50.7267 37.9056 50.1211 37.5753 49.7908L36.0339 48.2492C35.7036 47.9189 35.098 47.9189 34.7677 48.2492L33.2263 49.7908C32.896 50.1211 32.896 50.7267 33.2263 51.057L34.7677 52.5986C35.098 52.9289 35.7036 52.9289 36.0339 52.5986L37.5753 51.057Z" fill="#F7FAFC"/>
<path d="M46.2179 51.057C46.5482 50.7267 46.5482 50.1211 46.2179 49.7908L44.6764 48.2492C44.3461 47.9189 43.7406 47.9189 43.4103 48.2492L41.8689 49.7908C41.5386 50.1211 41.5386 50.7267 41.8689 51.057L43.4103 52.5986C43.7406 52.9289 44.3461 52.9289 44.6764 52.5986L46.2179 51.057Z" fill="#F7FAFC"/>
<path d="M54.8604 51.057C55.1907 50.7267 55.1907 50.1211 54.8604 49.7908L53.319 48.2492C52.9887 47.9189 52.3832 47.9189 52.0529 48.2492L50.5115 49.7908C50.1811 50.1211 50.1811 50.7267 50.5115 51.057L52.0529 52.5986C52.3832 52.9289 52.9887 52.9289 53.319 52.5986L54.8604 51.057Z" fill="#F7FAFC"/>
</g>
<g filter="url(#filter2_dd_1_1964)">
<path d="M225.107 102.227V89.0688C225.107 87.3621 223.676 85.9307 221.969 85.9307H125.08V91.216V91.3811V160.145V202.703C125.08 205.621 127.447 207.989 130.365 207.989H225.162V165.706V102.227H225.107Z" fill="#4498EE"/>
<g filter="url(#filter3_dd_1_1964)">
<path d="M233.916 88.1323V201.767C233.916 203.473 232.485 204.905 230.778 204.905H131.577C129.871 204.905 128.44 203.473 128.44 201.767V88.1323H233.916Z" fill="white" stroke="#F2F7FB" stroke-width="0.5" stroke-miterlimit="10"/>
<path d="M234.018 88.2012H128.541V156.965H234.018V88.2012Z" fill="#F7FAFC"/>
<path d="M233.916 80.48C233.916 78.7732 232.485 77.3418 230.778 77.3418H131.577C129.871 77.3418 128.44 78.7732 128.44 80.48V88.1327H233.916V80.48Z" fill="#1E65AE"/>
<path d="M221.53 162.512H140.826C139.56 162.512 138.514 163.558 138.514 164.824V173.468C138.514 174.734 139.56 175.78 140.826 175.78H221.53C222.796 175.78 223.842 174.734 223.842 173.468V164.824C223.842 163.558 222.796 162.512 221.53 162.512Z" fill="#4498EE"/>
<path d="M164.224 189.159H151.232C150.626 189.159 150.131 188.664 150.131 188.058V181.892C150.131 181.287 150.626 180.791 151.232 180.791H164.224C164.829 180.791 165.325 181.287 165.325 181.892V188.058C165.325 188.664 164.829 189.159 164.224 189.159Z" fill="#E2E8F0"/>
<path d="M186.96 189.159H174.023C173.417 189.159 172.922 188.664 172.922 188.058V181.892C172.922 181.287 173.417 180.791 174.023 180.791H187.015C187.62 180.791 188.116 181.287 188.116 181.892V188.058C188.061 188.664 187.565 189.159 186.96 189.159Z" fill="#E2E8F0"/>
<path d="M209.751 189.159H196.759C196.154 189.159 195.658 188.664 195.658 188.058V181.892C195.658 181.287 196.154 180.791 196.759 180.791H209.751C210.357 180.791 210.852 181.287 210.852 181.892V188.058C210.852 188.664 210.357 189.159 209.751 189.159Z" fill="#E2E8F0"/>
<g opacity="0.5">
<g opacity="0.5">
<g opacity="0.5">
<path opacity="0.5" d="M223.842 198.134H138.568V199.51H223.842V198.134Z" fill="#677784"/>
</g>
</g>
</g>
<g opacity="0.5">
<g opacity="0.5">
<g opacity="0.5">
<path opacity="0.5" d="M217.18 194.39H145.174V195.767H217.18V194.39Z" fill="#677784"/>
</g>
</g>
</g>
</g>
</g>
<path d="M200.061 108.995L182.853 126.877C181.908 127.862 180.343 127.888 179.346 126.955L170.509 118.532C169.513 117.586 169.474 116.005 170.419 115.007C171.363 114.01 172.942 113.971 173.938 114.917L180.977 121.629L196.606 105.405C192.712 102.166 187.718 100.209 182.258 100.209C169.875 100.209 159.822 110.265 159.822 122.679C159.822 135.093 169.863 145.148 182.258 145.148C194.64 145.148 204.693 135.093 204.693 122.679C204.719 117.534 202.985 112.792 200.061 108.995ZM189.658 133.434H173.097C171.726 133.434 170.613 132.32 170.613 130.946C170.613 129.573 171.726 128.458 173.097 128.458H189.658C191.03 128.458 192.143 129.573 192.143 130.946C192.143 132.32 191.03 133.434 189.658 133.434Z" fill="#4498EE"/>
<path d="M150.588 169.135H213.958" stroke="white" stroke-width="6" stroke-linecap="round"/>
<g filter="url(#filter4_dd_1_1964)">
<rect x="43.9297" y="68.8711" width="66.9115" height="101.079" rx="8" fill="white"/>
</g>
<defs>
<filter id="filter0_dd_1_1964" x="11.2715" y="36.1118" width="258.936" height="174.667" filterUnits="userSpaceOnUse" color-interpolation-filters="sRGB">
<feFlood flood-opacity="0" result="BackgroundImageFix"/>
<feColorMatrix in="SourceAlpha" type="matrix" values="0 0 0 0 0 0 0 0 0 0 0 0 0 0 0 0 0 0 127 0" result="hardAlpha"/>
<feOffset dy="1.6"/>
<feGaussianBlur stdDeviation="1.38125"/>
<feColorMatrix type="matrix" values="0 0 0 0 0.415686 0 0 0 0 0.654902 0 0 0 0 0.772549 0 0 0 0.075 0"/>
<feBlend mode="normal" in2="BackgroundImageFix" result="effect1_dropShadow_1_1964"/>
<feColorMatrix in="SourceAlpha" type="matrix" values="0 0 0 0 0 0 0 0 0 0 0 0 0 0 0 0 0 0 127 0" result="hardAlpha"/>
<feOffset dy="8"/>
<feGaussianBlur stdDeviation="8.5"/>
<feColorMatrix type="matrix" values="0 0 0 0 0.415686 0 0 0 0 0.654902 0 0 0 0 0.772549 0 0 0 0.15 0"/>
<feBlend mode="normal" in2="effect1_dropShadow_1_1964" result="effect2_dropShadow_1_1964"/>
<feBlend mode="normal" in="SourceGraphic" in2="effect2_dropShadow_1_1964" result="shape"/>
</filter>
<filter id="filter1_dd_1_1964" x="11.2715" y="36.1118" width="258.936" height="174.667" filterUnits="userSpaceOnUse" color-interpolation-filters="sRGB">
<feFlood flood-opacity="0" result="BackgroundImageFix"/>
<feColorMatrix in="SourceAlpha" type="matrix" values="0 0 0 0 0 0 0 0 0 0 0 0 0 0 0 0 0 0 127 0" result="hardAlpha"/>
<feOffset dy="1.6"/>
<feGaussianBlur stdDeviation="1.38125"/>
<feColorMatrix type="matrix" values="0 0 0 0 0.415686 0 0 0 0 0.654902 0 0 0 0 0.772549 0 0 0 0.075 0"/>
<feBlend mode="normal" in2="BackgroundImageFix" result="effect1_dropShadow_1_1964"/>
<feColorMatrix in="SourceAlpha" type="matrix" values="0 0 0 0 0 0 0 0 0 0 0 0 0 0 0 0 0 0 127 0" result="hardAlpha"/>
<feOffset dy="8"/>
<feGaussianBlur stdDeviation="8.5"/>
<feColorMatrix type="matrix" values="0 0 0 0 0.415686 0 0 0 0 0.654902 0 0 0 0 0.772549 0 0 0 0.15 0"/>
<feBlend mode="normal" in2="effect1_dropShadow_1_1964" result="effect2_dropShadow_1_1964"/>
<feBlend mode="normal" in="SourceGraphic" in2="effect2_dropShadow_1_1964" result="shape"/>
</filter>
<filter id="filter2_dd_1_1964" x="108.08" y="68.3418" width="143.086" height="164.647" filterUnits="userSpaceOnUse" color-interpolation-filters="sRGB">
<feFlood flood-opacity="0" result="BackgroundImageFix"/>
<feColorMatrix in="SourceAlpha" type="matrix" values="0 0 0 0 0 0 0 0 0 0 0 0 0 0 0 0 0 0 127 0" result="hardAlpha"/>
<feOffset dy="1.6"/>
<feGaussianBlur stdDeviation="1.38125"/>
<feColorMatrix type="matrix" values="0 0 0 0 0.415686 0 0 0 0 0.654902 0 0 0 0 0.772549 0 0 0 0.075 0"/>
<feBlend mode="normal" in2="BackgroundImageFix" result="effect1_dropShadow_1_1964"/>
<feColorMatrix in="SourceAlpha" type="matrix" values="0 0 0 0 0 0 0 0 0 0 0 0 0 0 0 0 0 0 127 0" result="hardAlpha"/>
<feOffset dy="8"/>
<feGaussianBlur stdDeviation="8.5"/>
<feColorMatrix type="matrix" values="0 0 0 0 0.415686 0 0 0 0 0.654902 0 0 0 0 0.772549 0 0 0 0.15 0"/>
<feBlend mode="normal" in2="effect1_dropShadow_1_1964" result="effect2_dropShadow_1_1964"/>
<feBlend mode="normal" in="SourceGraphic" in2="effect2_dropShadow_1_1964" result="shape"/>
</filter>
<filter id="filter3_dd_1_1964" x="111.19" y="68.3418" width="139.977" height="161.813" filterUnits="userSpaceOnUse" color-interpolation-filters="sRGB">
<feFlood flood-opacity="0" result="BackgroundImageFix"/>
<feColorMatrix in="SourceAlpha" type="matrix" values="0 0 0 0 0 0 0 0 0 0 0 0 0 0 0 0 0 0 127 0" result="hardAlpha"/>
<feOffset dy="1.6"/>
<feGaussianBlur stdDeviation="1.38125"/>
<feColorMatrix type="matrix" values="0 0 0 0 0.415686 0 0 0 0 0.654902 0 0 0 0 0.772549 0 0 0 0.075 0"/>
<feBlend mode="normal" in2="BackgroundImageFix" result="effect1_dropShadow_1_1964"/>
<feColorMatrix in="SourceAlpha" type="matrix" values="0 0 0 0 0 0 0 0 0 0 0 0 0 0 0 0 0 0 127 0" result="hardAlpha"/>
<feOffset dy="8"/>
<feGaussianBlur stdDeviation="8.5"/>
<feColorMatrix type="matrix" values="0 0 0 0 0.415686 0 0 0 0 0.654902 0 0 0 0 0.772549 0 0 0 0.15 0"/>
<feBlend mode="normal" in2="effect1_dropShadow_1_1964" result="effect2_dropShadow_1_1964"/>
<feBlend mode="normal" in="SourceGraphic" in2="effect2_dropShadow_1_1964" result="shape"/>
</filter>
<filter id="filter4_dd_1_1964" x="26.9297" y="59.8711" width="100.911" height="135.079" filterUnits="userSpaceOnUse" color-interpolation-filters="sRGB">
<feFlood flood-opacity="0" result="BackgroundImageFix"/>
<feColorMatrix in="SourceAlpha" type="matrix" values="0 0 0 0 0 0 0 0 0 0 0 0 0 0 0 0 0 0 127 0" result="hardAlpha"/>
<feOffset dy="1.6"/>
<feGaussianBlur stdDeviation="1.38125"/>
<feColorMatrix type="matrix" values="0 0 0 0 0.415686 0 0 0 0 0.654902 0 0 0 0 0.772549 0 0 0 0.075 0"/>
<feBlend mode="normal" in2="BackgroundImageFix" result="effect1_dropShadow_1_1964"/>
<feColorMatrix in="SourceAlpha" type="matrix" values="0 0 0 0 0 0 0 0 0 0 0 0 0 0 0 0 0 0 127 0" result="hardAlpha"/>
<feOffset dy="8"/>
<feGaussianBlur stdDeviation="8.5"/>
<feColorMatrix type="matrix" values="0 0 0 0 0.415686 0 0 0 0 0.654902 0 0 0 0 0.772549 0 0 0 0.15 0"/>
<feBlend mode="normal" in2="effect1_dropShadow_1_1964" result="effect2_dropShadow_1_1964"/>
<feBlend mode="normal" in="SourceGraphic" in2="effect2_dropShadow_1_1964" result="shape"/>
</filter>
</defs>
</svg>
