<svg width="306" height="296" viewBox="0 0 306 296" fill="none" xmlns="http://www.w3.org/2000/svg">
<path d="M281.36 47.7707C242.391 17.9241 204.593 42.2486 162.433 33.6482C119.969 24.9856 103.051 -3.85809 54.6851 9.45606C11.841 21.2498 -14.1555 68.5351 9.39741 108.123C16.1092 119.404 27.5431 127.914 32.2158 140.537C39.7532 160.899 28.28 176.531 30.5181 196.542C39.8182 279.686 167.276 247.481 214.175 221.613C287.727 181.044 337.484 90.7576 281.36 47.7707Z" fill="url(#paint0_linear_3140_235002)" fill-opacity="0.3"/>
<path opacity="0.24" d="M245 17C242.822 17 240.645 16.1707 238.987 14.5133C235.671 11.198 235.671 5.80293 238.987 2.48697C242.302 -0.828989 247.698 -0.828989 251.013 2.48697C254.329 5.80293 254.329 11.1974 251.013 14.5133C249.356 16.1707 247.178 17 245 17ZM245.001 5.86216C244.324 5.86216 243.649 6.11904 243.134 6.63397C242.106 7.66265 242.106 9.33706 243.134 10.3663C244.163 11.395 245.838 11.3956 246.867 10.3663C247.896 9.33764 247.896 7.66324 246.867 6.63397C246.352 6.11904 245.676 5.86216 245.001 5.86216Z" fill="#FAFCFD"/>
<path opacity="0.24" d="M32.5 205C30.1942 205 27.8878 204.171 26.1329 202.513C22.6224 199.197 22.6224 193.802 26.1329 190.486C29.6434 187.171 35.3566 187.171 38.8671 190.486C42.3776 193.802 42.3776 199.197 38.8671 202.513C37.1122 204.171 34.8058 205 32.5 205ZM32.5 193.862C31.7846 193.862 31.0686 194.119 30.524 194.634C29.4341 195.662 29.4341 197.337 30.524 198.366C31.6132 199.395 33.3868 199.395 34.476 198.366C35.5659 197.337 35.5659 195.663 34.476 194.634C33.9314 194.119 33.216 193.862 32.5 193.862Z" fill="#4498EE"/>
<path opacity="0.48" d="M57.8474 235.328C57.2016 235.71 56.4034 235.834 55.6047 235.608L50.7268 234.23L49.5869 239.169C49.2133 240.785 47.6165 241.73 46.0195 241.279C44.4222 240.828 43.43 239.151 43.8037 237.534L45.6195 229.667C45.9931 228.05 47.5899 227.105 49.1869 227.556L56.9567 229.752C58.5541 230.204 59.5462 231.88 59.1726 233.497C58.9852 234.305 58.4932 234.946 57.8474 235.328Z" fill="#FAFCFD"/>
<path opacity="0.48" d="M275.932 42.0187C275.302 42.4259 274.509 42.5805 273.702 42.3868L268.774 41.2012L267.83 46.1813C267.52 47.8116 265.961 48.8185 264.348 48.4307C262.734 48.0425 261.677 46.406 261.986 44.7757L263.491 36.8429C263.801 35.2126 265.359 34.2057 266.973 34.5935L274.823 36.482C276.437 36.8702 277.494 38.5068 277.185 40.1371C277.029 40.9518 276.563 41.6115 275.932 42.0187Z" fill="#1E65AE"/>
<g filter="url(#filter0_dddd_3140_235002)">
<rect x="78.5" y="75.4062" width="104.081" height="127.075" rx="8" transform="rotate(-17.5626 78.5 75.4062)" fill="#FBFCFE"/>
</g>
<path fill-rule="evenodd" clip-rule="evenodd" d="M154.54 122.586L145.03 123.833C143.28 124.062 141.673 122.828 141.444 121.078C141.215 119.328 142.449 117.722 144.199 117.492L153.709 116.245C155.459 116.016 157.066 117.25 157.295 119C157.525 120.75 156.29 122.357 154.54 122.586ZM145.861 130.174L164.882 127.68C166.635 127.45 168.239 128.685 168.468 130.435C168.697 132.185 167.467 133.791 165.713 134.021L146.692 136.514C144.942 136.744 143.335 135.51 143.106 133.76C142.877 132.01 144.111 130.403 145.861 130.174ZM174.294 139.345L139.773 143.871C138.803 143.998 137.921 143.391 137.806 142.516L131.572 94.9615C131.457 94.0865 132.154 93.2729 133.124 93.1457L150.386 90.8828L151.695 100.869C152.348 105.853 156.737 109.399 161.483 108.777L171.901 107.411L175.849 137.529C175.964 138.404 175.267 139.218 174.294 139.345ZM157.133 93.1526L167.082 101.594L160.652 102.437C159.403 102.6 158.23 101.525 158.035 100.038L157.133 93.1526ZM176.722 101.388L156.97 84.6282C156.28 84.0446 155.381 83.7787 154.484 83.8963L132.292 86.8054C127.825 87.3909 124.659 91.4243 125.231 95.793L131.465 143.348C132.038 147.716 136.137 150.797 140.604 150.212L175.125 145.686C179.592 145.101 182.762 141.067 182.189 136.698L177.825 103.41C177.722 102.621 177.328 101.902 176.722 101.388Z" fill="#CBD5E0"/>
<g filter="url(#filter1_dddd_3140_235002)">
<rect x="98.8418" y="57.0938" width="104.081" height="127.075" rx="8" transform="rotate(-0.715089 98.8418 57.0938)" fill="#FBFCFE"/>
</g>
<path fill-rule="evenodd" clip-rule="evenodd" d="M152.089 128.805L142.498 128.924C140.733 128.946 139.283 127.532 139.261 125.767C139.239 124.002 140.653 122.552 142.418 122.53L152.009 122.41C153.774 122.388 155.224 123.803 155.246 125.568C155.268 127.332 153.854 128.783 152.089 128.805ZM142.577 135.319L161.76 135.08C163.528 135.058 164.975 136.472 164.997 138.237C165.019 140.002 163.608 141.452 161.84 141.474L142.657 141.713C140.892 141.735 139.442 140.321 139.42 138.556C139.398 136.791 140.812 135.341 142.577 135.319ZM169.735 147.771L134.922 148.205C133.943 148.217 133.138 147.511 133.127 146.629L132.529 98.6709C132.518 97.7884 133.305 97.0623 134.283 97.0501L151.692 96.8328L151.817 106.904C151.88 111.93 155.822 115.967 160.608 115.908L171.114 115.777L171.493 146.15C171.504 147.032 170.717 147.758 169.735 147.771ZM158.124 99.88L167.011 109.432L160.527 109.513C159.268 109.529 158.229 108.324 158.211 106.824L158.124 99.88ZM176.609 110.361L158.965 91.3956C158.349 90.735 157.487 90.3652 156.583 90.3765L134.203 90.6559C129.698 90.7121 126.079 94.3451 126.134 98.7508L126.733 146.708C126.788 151.114 130.496 154.656 135.001 154.599L169.814 154.165C174.319 154.109 177.941 150.476 177.886 146.07L177.467 112.5C177.458 111.704 177.151 110.943 176.609 110.361Z" fill="#CBD5E0"/>
<path opacity="0.48" d="M262 173C259.824 173.001 257.647 172.171 255.99 170.513C254.384 168.907 253.5 166.772 253.5 164.5C253.5 162.229 254.384 160.093 255.99 158.487C259.303 155.171 264.696 155.171 268.01 158.487C269.616 160.093 270.5 162.229 270.5 164.5C270.5 166.772 269.616 168.907 268.01 170.513C266.354 172.171 264.177 173 262 173ZM262 161.862C261.325 161.862 260.649 162.119 260.135 162.634C259.636 163.132 259.362 163.795 259.362 164.5C259.362 165.205 259.637 165.868 260.135 166.366C261.164 167.396 262.837 167.396 263.866 166.366C264.365 165.868 264.638 165.205 264.638 164.5C264.638 163.795 264.364 163.133 263.866 162.634C263.352 162.119 262.676 161.862 262 161.862Z" fill="#CBD5E0"/>
<defs>
<filter id="filter0_dddd_3140_235002" x="15.5388" y="17.0391" width="263.496" height="278.48" filterUnits="userSpaceOnUse" color-interpolation-filters="sRGB">
<feFlood flood-opacity="0" result="BackgroundImageFix"/>
<feColorMatrix in="SourceAlpha" type="matrix" values="0 0 0 0 0 0 0 0 0 0 0 0 0 0 0 0 0 0 127 0" result="hardAlpha"/>
<feOffset dy="1.575"/>
<feGaussianBlur stdDeviation="1.87891"/>
<feColorMatrix type="matrix" values="0 0 0 0 0.415686 0 0 0 0 0.654902 0 0 0 0 0.772549 0 0 0 0.03 0"/>
<feBlend mode="normal" in2="BackgroundImageFix" result="effect1_dropShadow_3140_235002"/>
<feColorMatrix in="SourceAlpha" type="matrix" values="0 0 0 0 0 0 0 0 0 0 0 0 0 0 0 0 0 0 127 0" result="hardAlpha"/>
<feOffset dy="7.2"/>
<feGaussianBlur stdDeviation="5.28125"/>
<feColorMatrix type="matrix" values="0 0 0 0 0.415686 0 0 0 0 0.654902 0 0 0 0 0.772549 0 0 0 0.08 0"/>
<feBlend mode="normal" in2="effect1_dropShadow_3140_235002" result="effect2_dropShadow_3140_235002"/>
<feColorMatrix in="SourceAlpha" type="matrix" values="0 0 0 0 0 0 0 0 0 0 0 0 0 0 0 0 0 0 127 0" result="hardAlpha"/>
<feOffset dy="18.225"/>
<feGaussianBlur stdDeviation="14.168"/>
<feColorMatrix type="matrix" values="0 0 0 0 0.415686 0 0 0 0 0.654902 0 0 0 0 0.772549 0 0 0 0.12 0"/>
<feBlend mode="normal" in2="effect2_dropShadow_3140_235002" result="effect3_dropShadow_3140_235002"/>
<feColorMatrix in="SourceAlpha" type="matrix" values="0 0 0 0 0 0 0 0 0 0 0 0 0 0 0 0 0 0 127 0" result="hardAlpha"/>
<feOffset dy="36"/>
<feGaussianBlur stdDeviation="32.5"/>
<feColorMatrix type="matrix" values="0 0 0 0 0.415686 0 0 0 0 0.654902 0 0 0 0 0.772549 0 0 0 0.16 0"/>
<feBlend mode="normal" in2="effect3_dropShadow_3140_235002" result="effect4_dropShadow_3140_235002"/>
<feBlend mode="normal" in="SourceGraphic" in2="effect4_dropShadow_3140_235002" result="shape"/>
</filter>
<filter id="filter1_dddd_3140_235002" x="33.9409" y="26.8945" width="235.46" height="258.166" filterUnits="userSpaceOnUse" color-interpolation-filters="sRGB">
<feFlood flood-opacity="0" result="BackgroundImageFix"/>
<feColorMatrix in="SourceAlpha" type="matrix" values="0 0 0 0 0 0 0 0 0 0 0 0 0 0 0 0 0 0 127 0" result="hardAlpha"/>
<feOffset dy="1.575"/>
<feGaussianBlur stdDeviation="1.87891"/>
<feColorMatrix type="matrix" values="0 0 0 0 0.415686 0 0 0 0 0.654902 0 0 0 0 0.772549 0 0 0 0.03 0"/>
<feBlend mode="normal" in2="BackgroundImageFix" result="effect1_dropShadow_3140_235002"/>
<feColorMatrix in="SourceAlpha" type="matrix" values="0 0 0 0 0 0 0 0 0 0 0 0 0 0 0 0 0 0 127 0" result="hardAlpha"/>
<feOffset dy="7.2"/>
<feGaussianBlur stdDeviation="5.28125"/>
<feColorMatrix type="matrix" values="0 0 0 0 0.415686 0 0 0 0 0.654902 0 0 0 0 0.772549 0 0 0 0.08 0"/>
<feBlend mode="normal" in2="effect1_dropShadow_3140_235002" result="effect2_dropShadow_3140_235002"/>
<feColorMatrix in="SourceAlpha" type="matrix" values="0 0 0 0 0 0 0 0 0 0 0 0 0 0 0 0 0 0 127 0" result="hardAlpha"/>
<feOffset dy="18.225"/>
<feGaussianBlur stdDeviation="14.168"/>
<feColorMatrix type="matrix" values="0 0 0 0 0.415686 0 0 0 0 0.654902 0 0 0 0 0.772549 0 0 0 0.12 0"/>
<feBlend mode="normal" in2="effect2_dropShadow_3140_235002" result="effect3_dropShadow_3140_235002"/>
<feColorMatrix in="SourceAlpha" type="matrix" values="0 0 0 0 0 0 0 0 0 0 0 0 0 0 0 0 0 0 127 0" result="hardAlpha"/>
<feOffset dy="36"/>
<feGaussianBlur stdDeviation="32.5"/>
<feColorMatrix type="matrix" values="0 0 0 0 0.415686 0 0 0 0 0.654902 0 0 0 0 0.772549 0 0 0 0.16 0"/>
<feBlend mode="normal" in2="effect3_dropShadow_3140_235002" result="effect4_dropShadow_3140_235002"/>
<feBlend mode="normal" in="SourceGraphic" in2="effect4_dropShadow_3140_235002" result="shape"/>
</filter>
<linearGradient id="paint0_linear_3140_235002" x1="209.431" y1="293.4" x2="334.265" y2="29.6322" gradientUnits="userSpaceOnUse">
<stop stop-color="#E1E8F2"/>
<stop offset="1" stop-color="#E2E8F0" stop-opacity="0"/>
</linearGradient>
</defs>
</svg>
