<svg width="44" height="44" viewBox="0 0 44 44" fill="none" xmlns="http://www.w3.org/2000/svg">
<path d="M39.4299 8.60868L22.5314 26.1449C21.628 27.1015 20.0869 27.1015 19.1304 26.1981L10.4686 17.9613C9.51206 17.058 9.45895 15.4638 10.3623 14.5073C11.2657 13.5507 12.8068 13.4976 13.8164 14.4009L20.7247 20.9903L36.0821 5.10145C32.256 1.91304 27.3671 0 22 0C9.83093 0 0 9.83093 0 22C0 34.1691 9.83093 44 22 44C34.1691 44 44 34.1691 44 22C44 16.9517 42.2995 12.3285 39.4299 8.60868ZM29.227 32.5217H12.9662C11.6377 32.5217 10.5217 31.4058 10.5217 30.0773C10.5217 28.7488 11.6377 27.6328 12.9662 27.6328H29.227C30.5555 27.6328 31.6715 28.7488 31.6715 30.0773C31.6715 31.459 30.6087 32.5217 29.227 32.5217Z" fill="#EEF6FF"/>
</svg>
