<svg width="64" height="45" viewBox="0 0 64 45" fill="none" xmlns="http://www.w3.org/2000/svg">
<path d="M0 5.42221C0 2.4276 2.42761 0 5.42221 0H58.2888C61.2834 0 63.711 2.42761 63.711 5.42221V38.8047C63.711 41.7993 61.2834 44.2269 58.2888 44.2269H5.42221C2.4276 44.2269 0 41.7993 0 38.8047V5.42221Z" fill="#8F4F8B"/>
<path d="M28.6638 31.8564C28.206 31.8564 27.8607 31.7399 27.6278 31.507C27.3949 31.2661 27.2784 30.9288 27.2784 30.4951V26.6643H26.3027V25.5922H26.8327C27.0495 25.5922 27.1981 25.544 27.2784 25.4476C27.3668 25.3512 27.4109 25.1946 27.4109 24.9778V23.8815H28.5915V25.5922H29.9046V26.6643H28.5915V30.7842H29.8082V31.8564H28.6638ZM33.4984 32.0009C33.0487 32.0009 32.6471 31.9246 32.2938 31.7721C31.9404 31.6195 31.6392 31.4026 31.3903 31.1215C31.1413 30.8324 30.9486 30.4871 30.812 30.0855C30.6835 29.676 30.6193 29.2222 30.6193 28.7243C30.6193 28.2263 30.6835 27.7766 30.812 27.3751C30.9486 26.9655 31.1413 26.6201 31.3903 26.339C31.6392 26.0499 31.9404 25.8291 32.2938 25.6765C32.6471 25.5239 33.0487 25.4476 33.4984 25.4476C33.9562 25.4476 34.3577 25.5279 34.7031 25.6885C35.0564 25.8492 35.3496 26.074 35.5825 26.3631C35.8154 26.6442 35.988 26.9735 36.1005 27.351C36.2209 27.7284 36.2812 28.134 36.2812 28.5677V29.0616H31.9805V29.2664C31.9805 29.7482 32.1211 30.1458 32.4022 30.459C32.6913 30.7642 33.1009 30.9168 33.6309 30.9168C34.0164 30.9168 34.3417 30.8324 34.6067 30.6638C34.8717 30.4951 35.0966 30.2662 35.2813 29.9771L36.0523 30.7361C35.8194 31.1215 35.4821 31.4307 35.0404 31.6636C34.5987 31.8885 34.0847 32.0009 33.4984 32.0009ZM33.4984 26.4716C33.2735 26.4716 33.0647 26.5117 32.872 26.592C32.6873 26.6723 32.5267 26.7848 32.3901 26.9293C32.2616 27.0739 32.1612 27.2466 32.089 27.4473C32.0167 27.6481 31.9805 27.869 31.9805 28.1099V28.1942H34.8958V28.0738C34.8958 27.5919 34.7713 27.2064 34.5224 26.9173C34.2734 26.6201 33.9321 26.4716 33.4984 26.4716ZM42.0836 31.8564C41.7382 31.8564 41.4732 31.76 41.2885 31.5673C41.1038 31.3665 40.9914 31.1135 40.9512 30.8083H40.891C40.7705 31.2019 40.5496 31.499 40.2284 31.6998C39.9072 31.9006 39.5177 32.0009 39.0599 32.0009C38.4094 32.0009 37.9074 31.8323 37.5541 31.495C37.2087 31.1577 37.0361 30.7039 37.0361 30.1337C37.0361 29.5073 37.2609 29.0375 37.7107 28.7243C38.1684 28.4111 38.835 28.2545 39.7104 28.2545H40.8428V27.7244C40.8428 27.3389 40.7384 27.0418 40.5296 26.833C40.3208 26.6242 39.9955 26.5197 39.5538 26.5197C39.1844 26.5197 38.8832 26.6001 38.6503 26.7607C38.4174 26.9213 38.2206 27.1261 38.06 27.3751L37.277 26.6643C37.4858 26.3109 37.7789 26.0218 38.1564 25.797C38.5339 25.5641 39.0278 25.4476 39.6381 25.4476C40.4493 25.4476 41.0717 25.6363 41.5053 26.0138C41.939 26.3913 42.1559 26.9333 42.1559 27.6401V30.7842H42.8184V31.8564H42.0836ZM39.4333 31.0011C39.8429 31.0011 40.1802 30.9127 40.4452 30.7361C40.7103 30.5513 40.8428 30.3064 40.8428 30.0012V29.0977H39.7345C38.827 29.0977 38.3732 29.3788 38.3732 29.941V30.1578C38.3732 30.4389 38.4656 30.6517 38.6503 30.7963C38.843 30.9328 39.1041 31.0011 39.4333 31.0011ZM43.8644 31.8564V25.5922H45.1775V26.6282H45.2377C45.302 26.4675 45.3783 26.315 45.4666 26.1704C45.563 26.0258 45.6754 25.9014 45.8039 25.797C45.9404 25.6845 46.097 25.6002 46.2737 25.544C46.4584 25.4797 46.6713 25.4476 46.9122 25.4476C47.3378 25.4476 47.7153 25.552 48.0446 25.7608C48.3738 25.9696 48.6148 26.2909 48.7674 26.7245H48.8035C48.9159 26.3712 49.1328 26.07 49.454 25.821C49.7753 25.5721 50.1889 25.4476 50.6948 25.4476C51.3212 25.4476 51.8071 25.6604 52.1525 26.0861C52.4978 26.5037 52.6705 27.102 52.6705 27.881V31.8564H51.3574V28.0376C51.3574 27.5558 51.265 27.1944 51.0803 26.9534C50.8956 26.7045 50.6025 26.58 50.2009 26.58C50.0323 26.58 49.8716 26.6041 49.719 26.6523C49.5665 26.6924 49.4299 26.7567 49.3095 26.845C49.197 26.9333 49.1047 27.0458 49.0324 27.1823C48.9601 27.3188 48.924 27.4754 48.924 27.6521V31.8564H47.6109V28.0376C47.6109 27.0659 47.2294 26.58 46.4665 26.58C46.3058 26.58 46.1452 26.6041 45.9846 26.6523C45.832 26.6924 45.6955 26.7567 45.575 26.845C45.4546 26.9333 45.3582 27.0458 45.2859 27.1823C45.2136 27.3188 45.1775 27.4754 45.1775 27.6521V31.8564H43.8644Z" fill="white"/>
<path d="M19.2321 16.7404V25.7893V32.1603V32.3005H23.0475V16.7404H19.2321Z" fill="white"/>
<circle cx="21.1707" cy="12.5809" r="2.51407" fill="white"/>
<path d="M18.5924 28.8879C18.3019 29.1029 17.9727 29.2598 17.6228 29.35C17.2583 29.4483 16.8825 29.4981 16.505 29.4981C15.59 29.4981 14.9244 29.2151 14.5084 28.6489C14.0923 28.0828 13.8837 27.2632 13.8823 26.1902V16.7404H10.0669V26.5852C10.0669 28.5324 10.4941 30.0327 11.3486 31.0859C12.203 32.1392 13.4354 32.6658 15.0455 32.6658C15.616 32.6753 16.1844 32.5953 16.7301 32.4289C17.1832 32.2867 17.6072 32.0646 17.9822 31.7732C18.318 31.5077 18.6093 31.1903 18.8452 30.8332C18.9203 30.7186 18.9894 30.6021 19.0546 30.4816V28.4356C18.9202 28.6053 18.7649 28.7572 18.5924 28.8879Z" fill="white"/>
</svg>
