<svg width="102" height="20" viewBox="0 0 102 20" fill="none" xmlns="http://www.w3.org/2000/svg">
<path d="M26.2933 1.36365C23.0198 1.36365 20.8636 3.80003 20.8636 7.47731C20.8636 11.2454 23.0198 13.6212 26.4035 13.6212C29.2049 13.6212 30.5269 11.9264 31.0778 10.4282C31.1092 10.3374 31.125 10.2618 31.125 10.171C31.125 9.85317 30.8417 9.62617 30.5741 9.56564C30.464 9.53538 30.3538 9.52025 30.2594 9.52025C29.9604 9.52025 29.6771 9.65644 29.5512 9.98936C29.142 11.2 28.2449 12.2896 26.3563 12.2896C23.9956 12.2896 22.4375 10.4131 22.4375 7.49245C22.4375 4.51128 23.9956 2.6802 26.3563 2.6802C28.1505 2.6802 28.9374 3.57304 29.4095 4.66261C29.5512 4.95013 29.803 5.05606 30.0705 5.05606C30.1964 5.05606 30.3223 5.04093 30.4482 4.99553C30.6843 4.91986 30.9361 4.708 30.9361 4.39021C30.9361 4.29942 30.9204 4.19349 30.8732 4.08756C30.3066 2.75587 29.0633 1.36365 26.2933 1.36365Z" fill="#023365"/>
<path d="M36.4947 4.78367C33.9451 4.78367 32.4185 6.55421 32.4185 9.17219C32.4185 11.8658 33.9293 13.6212 36.5261 13.6212C38.9813 13.6212 40.4922 11.8053 40.4922 9.17219C40.4922 6.53908 39.0128 4.78367 36.4947 4.78367ZM36.5419 5.9489C38.1472 5.9489 39.0443 7.25032 39.0443 9.15706C39.0443 11.1697 38.1472 12.456 36.4317 12.456C34.8107 12.456 33.8664 11.1395 33.8664 9.21759C33.8664 7.20492 34.8422 5.9489 36.5419 5.9489Z" fill="#023365"/>
<path d="M49.5502 7.73457C49.5502 5.87323 48.5429 4.78367 46.6701 4.78367C45.1749 4.78367 44.2306 5.46465 43.6798 6.53908C43.6955 6.25155 43.7427 6.10022 43.7427 5.9035V5.49491C43.7427 5.10146 43.4595 4.90473 43.0503 4.90473C42.6096 4.90473 42.3106 5.10146 42.3106 5.49491V12.8646C42.3106 13.2732 42.5939 13.4699 43.0345 13.4699C43.4437 13.4699 43.7427 13.2732 43.7427 12.8646V8.62741C43.7427 8.03723 43.9001 7.59838 44.2936 7.08386C44.8287 6.37262 45.5369 6.00943 46.3868 6.00943C47.5671 6.00943 48.1022 6.7358 48.1022 8.0221V12.8646C48.1022 13.2732 48.4013 13.4699 48.8262 13.4699C49.2354 13.4699 49.5502 13.2732 49.5502 12.8646V7.73457Z" fill="#023365"/>
<path d="M58.9869 7.73457C58.9869 5.87323 57.9797 4.78367 56.1069 4.78367C54.6117 4.78367 53.6674 5.46465 53.1166 6.53908C53.1323 6.25155 53.1795 6.10022 53.1795 5.9035V5.49491C53.1795 5.10146 52.8963 4.90473 52.4871 4.90473C52.0464 4.90473 51.7474 5.10146 51.7474 5.49491V12.8646C51.7474 13.2732 52.0306 13.4699 52.4713 13.4699C52.8805 13.4699 53.1795 13.2732 53.1795 12.8646V8.62741C53.1795 8.03723 53.3369 7.59838 53.7304 7.08386C54.2655 6.37262 54.9737 6.00943 55.8236 6.00943C57.0039 6.00943 57.539 6.7358 57.539 8.0221V12.8646C57.539 13.2732 57.8381 13.4699 58.263 13.4699C58.6722 13.4699 58.9869 13.2732 58.9869 12.8646V7.73457Z" fill="#023365"/>
<path d="M67.7155 9.44458C68.2034 9.44458 68.5024 9.15706 68.5024 8.61228C68.5024 8.56688 68.5024 8.53661 68.5024 8.49121C68.3451 6.50881 67.0545 4.78367 64.7567 4.78367C62.1914 4.78367 60.775 6.61474 60.775 9.23272C60.775 11.8507 62.2701 13.6061 64.8512 13.6061C66.8971 13.6061 67.81 12.6073 68.3136 11.6086C68.3765 11.5178 68.3923 11.427 68.3923 11.3362C68.3923 11.0638 68.1719 10.8822 67.9044 10.8065C67.7942 10.7763 67.684 10.746 67.5739 10.746C67.3535 10.746 67.1489 10.8519 67.0073 11.1243C66.6296 11.9264 66.0001 12.4711 64.8669 12.4711C63.1672 12.4711 62.2071 11.3059 62.1757 9.44458H67.7155ZM62.2229 8.33989C62.4275 6.85687 63.2459 5.88837 64.7567 5.88837C66.2047 5.88837 66.8814 6.99306 67.0703 8.06749C67.0703 8.09776 67.0703 8.12803 67.0703 8.14316C67.0703 8.27935 67.0073 8.33989 66.8342 8.33989H62.2229Z" fill="#023365"/>
<path d="M69.8122 9.21759C69.8122 11.8204 71.2443 13.6212 73.7939 13.6212C75.9343 13.6212 76.7685 12.5317 77.1934 11.4875C77.2406 11.3816 77.2563 11.3059 77.2563 11.2151C77.2563 10.9427 77.036 10.7611 76.7527 10.7006C76.6426 10.6552 76.5324 10.6401 76.4222 10.6401C76.1704 10.6401 75.9501 10.7611 75.8399 11.0487C75.5409 11.8658 75.053 12.4409 73.8254 12.4409C72.1572 12.4409 71.2758 11.1849 71.2758 9.20246C71.2758 7.28059 72.1729 5.9489 73.8097 5.9489C75.0058 5.9489 75.4779 6.53908 75.7769 7.31085C75.8871 7.56811 76.0917 7.65891 76.3278 7.65891C76.438 7.65891 76.5639 7.64377 76.674 7.61351C76.9101 7.52271 77.1462 7.34112 77.1462 7.05359C77.1462 6.99306 77.1304 6.90227 77.099 6.8266C76.7055 5.87323 75.8556 4.76854 73.7782 4.76854C71.1971 4.76854 69.8122 6.62987 69.8122 9.21759Z" fill="#023365"/>
<path d="M79.8643 4.99553H78.6525C78.259 4.99553 78.0859 5.25279 78.0859 5.60084C78.0859 5.9489 78.259 6.19102 78.6368 6.19102H79.8643V11.3816C79.8643 12.9705 80.8086 13.591 82.0992 13.591C82.7759 13.591 83.2008 13.4699 83.6573 13.2581C83.8933 13.137 83.9878 12.9251 83.9878 12.7133C83.9878 12.6073 83.972 12.4863 83.9248 12.3804C83.8304 12.1534 83.6415 11.9869 83.4054 11.9869C83.311 11.9869 83.2166 12.0172 83.1222 12.0626C82.8546 12.2139 82.5871 12.3198 82.1936 12.3198C81.6113 12.3198 81.2808 12.002 81.2808 11.2605V6.19102H83.2953C83.673 6.19102 83.8776 5.9489 83.8776 5.60084C83.8776 5.23765 83.6887 4.99553 83.2953 4.99553H81.2808V3.16445C81.2808 2.771 80.9818 2.55914 80.5726 2.55914C80.1319 2.55914 79.8643 2.771 79.8643 3.16445V4.99553Z" fill="#023365"/>
<path d="M30.1364 17.94V15.0497H31.8934V15.3561H30.4911V16.3251H31.7709V16.6315H30.4911V17.94H30.1364Z" fill="#6D7781"/>
<path d="M34.1176 17.94H33.7628V15.0497H34.937C35.1961 15.0497 35.3974 15.1201 35.541 15.2609C35.6874 15.4017 35.7606 15.6046 35.7606 15.8696C35.7606 16.0822 35.71 16.2575 35.6086 16.3955C35.51 16.5308 35.3636 16.6205 35.1693 16.6646L35.8451 17.94H35.4439L34.8061 16.6978H34.1176V17.94ZM34.937 16.3996C35.0778 16.3996 35.1862 16.3637 35.2622 16.292C35.3411 16.2202 35.3805 16.118 35.3805 15.9855V15.7702C35.3805 15.6377 35.3411 15.5356 35.2622 15.4638C35.1862 15.392 35.0778 15.3561 34.937 15.3561H34.1176V16.3996H34.937Z" fill="#6D7781"/>
<path d="M38.7928 17.9897C38.6013 17.9897 38.4281 17.958 38.2733 17.8945C38.1212 17.8282 37.9903 17.733 37.8805 17.6088C37.7735 17.4818 37.6904 17.3258 37.6313 17.1409C37.5721 16.9531 37.5426 16.7378 37.5426 16.4949C37.5426 16.2519 37.5721 16.038 37.6313 15.853C37.6904 15.6681 37.7735 15.5121 37.8805 15.3851C37.9903 15.2581 38.1212 15.1629 38.2733 15.0994C38.4281 15.0331 38.6013 15 38.7928 15C38.9814 15 39.1532 15.0331 39.3081 15.0994C39.4629 15.1629 39.5939 15.2581 39.7009 15.3851C39.8107 15.5121 39.8952 15.6681 39.9543 15.853C40.0134 16.038 40.043 16.2519 40.043 16.4949C40.043 16.7378 40.0134 16.9531 39.9543 17.1409C39.8952 17.3258 39.8107 17.4818 39.7009 17.6088C39.5939 17.733 39.4629 17.8282 39.3081 17.8945C39.1532 17.958 38.9814 17.9897 38.7928 17.9897ZM38.7928 17.6792C38.9195 17.6792 39.0364 17.6571 39.1434 17.6129C39.2504 17.5687 39.3419 17.5053 39.4179 17.4224C39.4967 17.3396 39.5573 17.2402 39.5995 17.1243C39.6418 17.0083 39.6629 16.8786 39.6629 16.735V16.2547C39.6629 16.1111 39.6418 15.9814 39.5995 15.8655C39.5573 15.7495 39.4967 15.6501 39.4179 15.5673C39.3419 15.4845 39.2504 15.421 39.1434 15.3768C39.0364 15.3327 38.9195 15.3106 38.7928 15.3106C38.6661 15.3106 38.5492 15.3327 38.4422 15.3768C38.3352 15.421 38.2423 15.4845 38.1634 15.5673C38.0874 15.6501 38.0283 15.7495 37.9861 15.8655C37.9438 15.9814 37.9227 16.1111 37.9227 16.2547V16.735C37.9227 16.8786 37.9438 17.0083 37.9861 17.1243C38.0283 17.2402 38.0874 17.3396 38.1634 17.4224C38.2423 17.5053 38.3352 17.5687 38.4422 17.6129C38.5492 17.6571 38.6661 17.6792 38.7928 17.6792Z" fill="#6D7781"/>
<path d="M42.6618 16.176L42.307 15.5342H42.2943V17.94H41.9479V15.0497H42.3576L43.4347 16.8137L43.7895 17.4556H43.8022V15.0497H44.1485V17.94H43.7388L42.6618 16.176Z" fill="#6D7781"/>
<path d="M47.1939 15.3561V17.94H46.8391V15.3561H45.9015V15.0497H48.1316V15.3561H47.1939Z" fill="#6D7781"/>
<path d="M52.1509 17.94V15.0497H53.9502V15.3561H52.5057V16.3251H53.8657V16.6315H52.5057V17.6336H53.9502V17.94H52.1509Z" fill="#6D7781"/>
<path d="M56.5943 16.176L56.2395 15.5342H56.2268V17.94H55.8805V15.0497H56.2902L57.3672 16.8137L57.722 17.4556H57.7347V15.0497H58.081V17.94H57.6713L56.5943 16.176Z" fill="#6D7781"/>
<path d="M60.1339 15.0497H61.1222C61.3053 15.0497 61.4714 15.0801 61.6206 15.1408C61.7699 15.2015 61.8966 15.2926 62.0008 15.4141C62.1078 15.5328 62.1894 15.6833 62.2458 15.8655C62.3021 16.0449 62.3302 16.2547 62.3302 16.4949C62.3302 16.735 62.3021 16.9462 62.2458 17.1284C62.1894 17.3079 62.1078 17.4583 62.0008 17.5798C61.8966 17.6985 61.7699 17.7882 61.6206 17.8489C61.4714 17.9097 61.3053 17.94 61.1222 17.94H60.1339V15.0497ZM61.1222 17.6336C61.2433 17.6336 61.3545 17.6143 61.4559 17.5756C61.5573 17.5342 61.6446 17.4749 61.7178 17.3976C61.791 17.3203 61.8473 17.2264 61.8867 17.116C61.929 17.0028 61.9501 16.8745 61.9501 16.7309V16.2588C61.9501 16.1153 61.929 15.9883 61.8867 15.8779C61.8473 15.7647 61.791 15.6694 61.7178 15.5922C61.6446 15.5149 61.5573 15.4569 61.4559 15.4182C61.3545 15.3768 61.2433 15.3561 61.1222 15.3561H60.4887V17.6336H61.1222Z" fill="#6D7781"/>
<path d="M66.5 17.94V15.0497H66.8548V17.6336H68.1092V17.94H66.5Z" fill="#6D7781"/>
<path d="M69.7437 17.94V17.6502H70.1577V15.3396H69.7437V15.0497H70.9264V15.3396H70.5125V17.6502H70.9264V17.94H69.7437Z" fill="#6D7781"/>
<path d="M72.8414 15.0497H74.0536C74.2986 15.0497 74.49 15.1173 74.628 15.2526C74.7688 15.3879 74.8392 15.5687 74.8392 15.7951C74.8392 15.9027 74.8237 15.9938 74.7927 16.0684C74.7618 16.1429 74.7223 16.205 74.6745 16.2547C74.6266 16.3016 74.5745 16.3375 74.5182 16.3624C74.4619 16.3844 74.4098 16.3996 74.3619 16.4079V16.4328C74.4154 16.4355 74.4745 16.4493 74.5393 16.4742C74.6069 16.499 74.6702 16.539 74.7294 16.5943C74.7885 16.6467 74.8378 16.7157 74.8772 16.8013C74.9194 16.8841 74.9406 16.9849 74.9406 17.1036C74.9406 17.2223 74.9209 17.3327 74.8814 17.4349C74.8448 17.537 74.7927 17.6253 74.7252 17.6999C74.6576 17.7744 74.5773 17.8338 74.4844 17.8779C74.3915 17.9193 74.2901 17.94 74.1803 17.94H72.8414V15.0497ZM73.1962 17.6336H74.0705C74.2225 17.6336 74.3422 17.5964 74.4295 17.5218C74.5168 17.4445 74.5604 17.3327 74.5604 17.1864V17.0456C74.5604 16.8993 74.5168 16.7889 74.4295 16.7143C74.3422 16.637 74.2225 16.5984 74.0705 16.5984H73.1962V17.6336ZM73.1962 16.3002H74.0113C74.1521 16.3002 74.262 16.2657 74.3408 16.1967C74.4196 16.1277 74.4591 16.0283 74.4591 15.8986V15.7578C74.4591 15.628 74.4196 15.5287 74.3408 15.4596C74.262 15.3906 74.1521 15.3561 74.0113 15.3561H73.1962V16.3002Z" fill="#6D7781"/>
<path d="M77.2227 17.94H76.8679V15.0497H78.0421C78.3012 15.0497 78.5025 15.1201 78.6461 15.2609C78.7925 15.4017 78.8658 15.6046 78.8658 15.8696C78.8658 16.0822 78.8151 16.2575 78.7137 16.3955C78.6152 16.5308 78.4687 16.6205 78.2744 16.6646L78.9502 17.94H78.549L77.9112 16.6978H77.2227V17.94ZM78.0421 16.3996C78.1829 16.3996 78.2913 16.3637 78.3674 16.292C78.4462 16.2202 78.4856 16.118 78.4856 15.9855V15.7702C78.4856 15.6377 78.4462 15.5356 78.3674 15.4638C78.2913 15.392 78.1829 15.3561 78.0421 15.3561H77.2227V16.3996H78.0421Z" fill="#6D7781"/>
<path d="M82.6825 17.94L82.3869 17.087H81.1958L80.9001 17.94H80.5411L81.5717 15.0497H82.0236L83.0542 17.94H82.6825ZM81.7998 15.3727H81.7786L81.2802 16.7806H82.2982L81.7998 15.3727Z" fill="#6D7781"/>
<path d="M85.1645 17.94H84.8097V15.0497H85.9839C86.243 15.0497 86.4443 15.1201 86.5879 15.2609C86.7343 15.4017 86.8075 15.6046 86.8075 15.8696C86.8075 16.0822 86.7568 16.2575 86.6555 16.3955C86.5569 16.5308 86.4105 16.6205 86.2162 16.6646L86.892 17.94H86.4907L85.853 16.6978H85.1645V17.94ZM85.9839 16.3996C86.1247 16.3996 86.2331 16.3637 86.3091 16.292C86.388 16.2202 86.4274 16.118 86.4274 15.9855V15.7702C86.4274 15.6377 86.388 15.5356 86.3091 15.4638C86.2331 15.392 86.1247 15.3561 85.9839 15.3561H85.1645V16.3996H85.9839Z" fill="#6D7781"/>
<path d="M89.3017 17.94V16.7972L88.288 15.0497H88.6935L89.4791 16.441H89.4918L90.2774 15.0497H90.6829L89.6565 16.7847V17.94H89.3017Z" fill="#6D7781"/>
<path fill-rule="evenodd" clip-rule="evenodd" d="M8.60742 18.2409C13.3612 18.2409 17.2148 14.4628 17.2148 9.80229C17.2148 5.14176 13.3612 1.36365 8.60742 1.36365C3.85367 1.36365 0 5.14176 0 9.80229C0 14.4628 3.85367 18.2409 8.60742 18.2409ZM8.31663 9.33455C8.41099 9.27273 8.52194 9.23974 8.63543 9.23974C8.78762 9.23974 8.93357 9.29901 9.04119 9.40451C9.1488 9.51002 9.20926 9.65311 9.20926 9.80231C9.20926 9.91358 9.1756 10.0223 9.11255 10.1149C9.0495 10.2074 8.95988 10.2795 8.85502 10.3221C8.75017 10.3646 8.63479 10.3758 8.52348 10.3541C8.41217 10.3324 8.30992 10.2788 8.22967 10.2001C8.14942 10.1214 8.09477 10.0212 8.07263 9.91207C8.05049 9.80294 8.06185 9.68982 8.10528 9.58702C8.14871 9.48423 8.22226 9.39637 8.31663 9.33455ZM13.0711 9.72355L13.008 9.80231L13.0883 9.8642C13.863 10.9106 14.0466 11.8726 13.622 12.5983C13.2605 13.2172 12.5145 13.5434 11.4988 13.5434C11.4013 13.5434 11.3066 13.5364 11.2119 13.5294C11.1172 13.5223 11.0226 13.5153 10.925 13.5153H10.8217C10.3053 14.6967 9.5306 15.4281 8.63543 15.4281C7.74026 15.4281 6.96559 14.6967 6.44341 13.5322H6.34012C6.1278 13.5603 5.94418 13.5603 5.76629 13.5603C4.77357 13.5603 4.04481 13.234 3.66608 12.6152C3.24145 11.8895 3.42507 10.9275 4.19974 9.88107L4.26286 9.80231L4.19974 9.72355C3.42507 8.67716 3.24145 7.71516 3.66608 6.98943C4.09071 6.26371 5.04327 5.94304 6.34012 6.07243L6.44914 6.08931C6.96559 4.9079 7.74026 4.17655 8.63543 4.17655C9.5306 4.17655 10.3053 4.9079 10.8275 6.07243H10.9307C12.2276 5.94304 13.1801 6.26371 13.6048 6.98943C14.0294 7.71516 13.8458 8.67716 13.0711 9.72355ZM5.80646 7.16946C5.23263 7.16946 4.80226 7.30447 4.6588 7.55201C4.49239 7.8333 4.61863 8.36212 5.05474 8.92469C5.31654 8.67316 5.59445 8.43827 5.88679 8.22147C5.93063 7.86694 5.99771 7.51554 6.08763 7.16946H5.80646ZM5.04327 10.6631C4.6588 11.2425 4.49239 11.7713 4.6588 12.0526C4.82521 12.3339 5.36461 12.4689 6.07616 12.4239C5.98624 12.0759 5.91916 11.7227 5.87532 11.3663C5.58298 11.1495 5.30506 10.9146 5.04327 10.6631ZM9.66832 6.33122C9.34124 5.673 8.95677 5.3017 8.63543 5.3017C8.31409 5.3017 7.92962 5.673 7.60254 6.33122C7.95312 6.43097 8.29792 6.54928 8.63543 6.68564C8.97294 6.54928 9.31774 6.43097 9.66832 6.33122ZM7.60254 13.2734C7.92962 13.9316 8.31409 14.3029 8.63543 14.3029C8.95677 14.3029 9.34124 13.9316 9.66832 13.2734C9.31774 13.1737 8.97294 13.0553 8.63543 12.919C8.29792 13.0553 7.95312 13.1737 7.60254 13.2734ZM9.49617 11.265C9.78308 11.1019 10.0528 10.9331 10.3167 10.7531C10.3569 10.4493 10.3569 10.1342 10.3569 9.80231C10.3569 9.63268 10.3464 9.46745 10.3362 9.30589C10.3263 9.15132 10.3167 9.00009 10.3167 8.85156C10.07 8.67154 9.78308 8.50276 9.49617 8.33961C9.20926 8.17834 8.92234 8.03207 8.63543 7.9008C8.34852 8.0302 8.0616 8.17647 7.77469 8.33961C7.48777 8.50276 7.21807 8.67154 6.95411 8.85156C6.91395 9.15535 6.91395 9.47039 6.91395 9.8023V9.80231V9.80233C6.91395 10.1342 6.91395 10.4493 6.95411 10.7531C7.20086 10.9331 7.48777 11.1019 7.77469 11.265C8.0616 11.4263 8.34852 11.5726 8.63543 11.7038C8.92234 11.5744 9.20926 11.4282 9.49617 11.265ZM11.1947 12.4239C11.9062 12.4746 12.4456 12.3339 12.6121 12.0526C12.7785 11.7713 12.6522 11.2425 12.2276 10.6631C11.9658 10.9146 11.6879 11.1495 11.3955 11.3663C11.3517 11.7227 11.2846 12.0759 11.1947 12.4239ZM11.3955 8.23835C11.6879 8.45515 11.9658 8.69003 12.2276 8.94157C12.6522 8.36212 12.7785 7.81642 12.6235 7.56888C12.4686 7.32135 12.0497 7.18633 11.4759 7.18633H11.1947C11.2846 7.53241 11.3517 7.88381 11.3955 8.23835Z" fill="#4498EE"/>
<path d="M85.4722 9.03594C85.4722 12.0776 87.2191 13.6363 90.2566 13.6363C93.3728 13.6363 95.0568 12.0322 95.0568 9.03594V2.12023C95.0568 1.69651 94.742 1.49979 94.3013 1.49979C93.8607 1.49979 93.5459 1.69651 93.5459 2.12023V8.97541C93.5459 11.1999 92.4127 12.3198 90.2409 12.3198C88.1162 12.3198 86.983 11.2151 86.983 8.99054V2.12023C86.983 1.69651 86.6525 1.49979 86.2433 1.49979C85.7869 1.49979 85.4722 1.69651 85.4722 2.12023V9.03594Z" fill="#4498EE"/>
<path d="M97.7073 12.8494C97.7073 13.258 98.0221 13.4699 98.447 13.4699C98.8877 13.4699 99.2182 13.258 99.2182 12.8494V2.12023C99.2182 1.69651 98.8877 1.49979 98.447 1.49979C98.0221 1.49979 97.7073 1.69651 97.7073 2.12023V12.8494Z" fill="#4498EE"/>
</svg>
