<svg width="121" height="29" viewBox="0 0 121 29" fill="none" xmlns="http://www.w3.org/2000/svg">
<g clip-path="url(#clip0_89_3921)">
<path d="M64.9994 9.17971V16.1452C64.9994 17.9383 64.3809 19.4555 63.1789 20.6279C62.0114 21.7658 60.6376 22.352 59.0234 22.352C57.2718 22.352 55.7605 21.7658 54.5584 20.559C53.3563 19.3866 52.7725 17.9383 52.7725 16.2142V8.8004C52.7725 8.17975 52.9442 7.73145 53.2878 7.38663C53.6313 7.04181 54.0434 6.86938 54.5241 6.86938C55.0051 6.86938 55.4173 7.04181 55.7262 7.35214C56.0697 7.73145 56.2415 8.2142 56.2415 8.8004V16.2486C56.2415 17.0417 56.4818 17.6969 56.9971 18.2141C57.5121 18.7314 58.1646 19.0073 58.9545 19.0073C59.6073 19.0073 60.1909 18.7659 60.7062 18.3176C61.2558 17.7659 61.5304 17.0762 61.5304 16.1797V8.8004C61.5304 8.17975 61.7022 7.73145 62.0114 7.38663C62.3546 7.04181 62.7667 6.86938 63.2478 6.86938C63.9345 6.86938 64.4498 7.14525 64.7587 7.73145C64.9305 8.00732 64.9994 8.49007 64.9994 9.17971Z" fill="#023365"/>
<path d="M74.6844 6.76593C76.0583 6.76593 77.1914 7.07629 78.1531 7.66249C79.012 8.24868 79.4584 8.86937 79.4584 9.55901C79.4584 10.1107 79.3209 10.559 79.012 10.8694C78.7027 11.1797 78.3592 11.3176 77.9128 11.3176C77.6724 11.3176 77.3975 11.2142 77.1228 11.0073C76.8482 10.8004 76.5732 10.5935 76.3329 10.3866C75.7147 9.90386 75.1308 9.66249 74.6158 9.66249C74.1005 9.66249 73.6884 9.80039 73.3791 10.0763C73.0359 10.3521 72.8985 10.6625 72.8985 11.0418C72.8985 11.7314 73.5166 12.2142 74.753 12.5245C76.6764 13.0073 78.016 13.559 78.8059 14.2142C79.7673 14.9728 80.2483 16.0762 80.2483 17.49C80.2483 18.9038 79.733 20.0762 78.737 21.0072C77.741 21.9382 76.4361 22.3865 74.8905 22.3865C73.242 22.3865 71.8682 22.0072 70.7347 21.2141C69.7044 20.49 69.1548 19.6624 69.1548 18.7314C69.1548 18.2831 69.2923 17.8693 69.6358 17.559C69.9447 17.2142 70.3226 17.0417 70.769 17.0417C71.3186 17.0417 71.9025 17.3521 72.5892 17.9383C73.4481 18.6969 74.238 19.1107 74.9248 19.1107C75.4744 19.1107 75.9208 18.9382 76.2643 18.6279C76.6079 18.3176 76.7793 17.9038 76.7793 17.3865C76.7793 16.8348 76.4704 16.421 75.8522 16.1452C75.6461 16.0417 74.8905 15.7659 73.5166 15.3866C72.1428 14.9728 71.1811 14.5245 70.5972 14.0073C69.8762 13.3866 69.5326 12.49 69.5326 11.3521C69.5326 10.0073 70.0136 8.90386 70.975 8.07629C71.9025 7.17973 73.1388 6.76593 74.6844 6.76593Z" fill="#023365"/>
<path d="M87.6327 8.8004V12.8349H93.2309V8.8004C93.2309 8.17975 93.4026 7.73145 93.7458 7.38663C94.0894 7.04181 94.5015 6.86938 95.0168 6.86938C95.5318 6.86938 95.9439 7.04181 96.2532 7.38663C96.5964 7.73145 96.7338 8.2142 96.7338 8.8004V20.3521C96.7338 20.9728 96.5621 21.421 96.2189 21.7658C95.8753 22.1107 95.4632 22.2831 94.9822 22.2831C94.5015 22.2831 94.0894 22.1107 93.7458 21.7658C93.4026 21.421 93.2309 20.9383 93.2309 20.3176V16.0072H87.6327V20.3176C87.6327 20.9383 87.4609 21.3865 87.1174 21.7658C86.7738 22.1107 86.3617 22.2831 85.881 22.2831C85.4004 22.2831 84.9879 22.1107 84.6447 21.7658C84.3012 21.421 84.1294 20.9383 84.1294 20.3521V8.8004C84.1294 8.17975 84.3012 7.73145 84.6447 7.38663C84.9879 7.04181 85.4004 6.86938 85.881 6.86938C86.3617 6.86938 86.7739 7.04181 87.0831 7.35214C87.4609 7.69699 87.6327 8.17975 87.6327 8.8004Z" fill="#023365"/>
<path d="M112.258 10.1107L107.93 14.3521L112.876 18.9382C113.528 19.5589 113.837 20.1107 113.837 20.5934C113.837 21.0762 113.666 21.49 113.322 21.8003C112.979 22.1106 112.566 22.2831 112.086 22.2831C111.605 22.2831 111.09 22.0072 110.506 21.4555L104.736 16.0072V20.352C104.736 20.9727 104.564 21.421 104.221 21.8003C103.877 22.1451 103.465 22.3176 102.984 22.3176C102.504 22.3176 102.091 22.1451 101.748 21.8003C101.405 21.4555 101.233 20.9727 101.233 20.352V8.76593C101.233 8.14524 101.405 7.66249 101.748 7.31767C102.091 6.97285 102.504 6.80042 102.984 6.80042C103.465 6.80042 103.877 6.97285 104.186 7.28318C104.53 7.66249 104.702 8.14524 104.702 8.76593V12.7659L109.75 7.66249C110.334 7.07629 110.884 6.76593 111.364 6.76593C111.845 6.76593 112.258 6.93836 112.566 7.24868C112.91 7.5935 113.047 7.97281 113.047 8.45557C113.15 8.97281 112.841 9.52455 112.258 10.1107Z" fill="#023365"/>
<path d="M117.031 20.3521V8.8004C117.031 8.17975 117.203 7.73145 117.546 7.38663C117.89 7.04181 118.302 6.86938 118.783 6.86938C119.264 6.86938 119.676 7.04181 119.985 7.35214C120.328 7.73145 120.5 8.2142 120.5 8.8004V20.3521C120.5 20.9728 120.328 21.421 119.985 21.7658C119.641 22.1107 119.229 22.2831 118.748 22.2831C118.268 22.2831 117.855 22.1107 117.512 21.7658C117.203 21.421 117.031 20.9383 117.031 20.3521Z" fill="#023365"/>
<path d="M35.8747 22.1452C34.913 22.1452 34.123 21.3521 34.123 20.3866V8.76595C34.123 7.80044 34.913 7.00732 35.8747 7.00732C36.8364 7.00732 37.6263 7.80044 37.6263 8.76595V20.421C37.6263 21.3865 36.8364 22.1452 35.8747 22.1452Z" fill="#023365"/>
<path d="M51.914 27.7313C51.4676 27.7313 51.0555 27.5589 50.712 27.2486L38.7257 15.628C38.039 14.9728 38.0047 13.8694 38.6571 13.1797L44.5642 6.97289C45.217 6.28322 46.3159 6.24876 47.0372 6.90391C47.724 7.55909 47.7583 8.66253 47.1058 9.38666L42.4008 14.3176L53.1504 24.7313C53.8374 25.3865 53.8717 26.5244 53.1846 27.2141C52.8414 27.5589 52.3947 27.7313 51.914 27.7313Z" fill="#00E6B2"/>
<path d="M25.9837 5.77879L15.0621 17.1139C14.4782 17.7322 13.4822 17.7322 12.864 17.1483L7.26587 11.8242C6.64767 11.2403 6.61335 10.2098 7.1972 9.59153C7.78105 8.97324 8.77705 8.93889 9.42957 9.52281L13.8944 13.7821L23.82 3.51178C21.3471 1.45085 18.1874 0.214294 14.7187 0.214294C6.85376 0.214294 0.5 6.56883 0.5 14.4347C0.5 22.3006 6.85376 28.6551 14.7187 28.6551C22.5836 28.6551 28.9373 22.3006 28.9373 14.4347C28.9373 11.1716 27.8383 8.1832 25.9837 5.77879ZM19.3895 21.2358H8.88008C8.02146 21.2358 7.30023 20.5144 7.30023 19.6557C7.30023 18.797 8.02146 18.0757 8.88008 18.0757H19.3895C20.2481 18.0757 20.9694 18.797 20.9694 19.6557C20.9694 20.5488 20.2825 21.2358 19.3895 21.2358Z" fill="#00E6B2"/>
</g>
<defs>
<clipPath id="clip0_89_3921">
<rect width="120" height="28.5714" fill="white" transform="translate(0.5 0.214294)"/>
</clipPath>
</defs>
</svg>
