<svg width="363" height="162" viewBox="0 0 363 162" fill="none" xmlns="http://www.w3.org/2000/svg">
<path fill-rule="evenodd" clip-rule="evenodd" d="M75.5184 128.563H224.467C225.31 128.563 226.131 128.474 226.922 128.305C227.713 128.474 228.535 128.563 229.378 128.563H314.491C320.819 128.563 325.949 123.534 325.949 117.33C325.949 111.126 320.819 106.096 314.491 106.096H304.67C298.343 106.096 293.213 101.067 293.213 94.8625C293.213 88.6583 298.343 83.6289 304.67 83.6289H335.77C342.097 83.6289 347.227 78.5994 347.227 72.3953C347.227 66.1911 342.097 61.1617 335.77 61.1617H299.76C306.088 61.1617 311.218 56.1322 311.218 49.9281C311.218 43.7239 306.088 38.6945 299.76 38.6945H195.005C201.333 38.6945 206.462 33.665 206.462 27.4609C206.462 21.2567 201.333 16.2273 195.005 16.2273H101.707C95.3793 16.2273 90.2496 21.2567 90.2496 27.4609C90.2496 33.665 95.3793 38.6945 101.707 38.6945H36.2352C29.9073 38.6945 24.7776 43.7239 24.7776 49.9281C24.7776 56.1322 29.9073 61.1617 36.2352 61.1617H77.1552C83.483 61.1617 88.6128 66.1911 88.6128 72.3953C88.6128 78.5994 83.483 83.6289 77.1552 83.6289H11.6832C5.35533 83.6289 0.225586 88.6583 0.225586 94.8625C0.225586 101.067 5.35533 106.096 11.6832 106.096H75.5184C69.1905 106.096 64.0608 111.126 64.0608 117.33C64.0608 123.534 69.1905 128.563 75.5184 128.563ZM342.317 128.563C348.645 128.563 353.774 123.534 353.774 117.33C353.774 111.126 348.645 106.096 342.317 106.096C335.989 106.096 330.859 111.126 330.859 117.33C330.859 123.534 335.989 128.563 342.317 128.563Z" fill="#F3F7FF"/>
<path d="M227.4 130.64H254.313M103.8 130.64H129.545H103.8ZM88.3535 130.64H96.6H88.3535ZM259.954 130.64H263.4H259.954Z" stroke="#4498EE" stroke-width="2.5" stroke-linecap="round" stroke-linejoin="round"/>
<path d="M144.6 7.09725L157.92 21.7919M207.12 7.09725L193.8 21.7919L207.12 7.09725ZM175.8 2.02002V21.7919V2.02002Z" stroke="#75A4FE" stroke-width="2.5" stroke-linecap="round" stroke-linejoin="round"/>
<path fill-rule="evenodd" clip-rule="evenodd" d="M138.357 39.78H213.485L206.757 49.7036L215.728 56.3194H136.115L146.206 49.7036L138.357 39.78Z" fill="#E8F0FE"/>
<rect x="133.8" y="53.9399" width="85.2" height="88.5" rx="2" fill="white"/>
<path fill-rule="evenodd" clip-rule="evenodd" d="M139.302 102.327V61.7815C139.302 60.111 140.695 58.7568 142.412 58.7568L215.584 134.374C215.584 136.601 213.771 138.407 211.534 138.407H143.352C141.115 138.407 139.302 136.601 139.302 134.374V119.306V115.218V102.327ZM139.302 111.081V106.54Z" fill="#E8F0FE"/>
<path d="M135 102.866V58.5247C135 56.6978 136.525 55.2168 138.405 55.2168H216.313C217.538 55.2168 218.531 56.2041 218.531 57.422V137.914C218.531 140.349 216.545 142.324 214.096 142.324H139.435C136.986 142.324 135 140.349 135 137.914V121.434V116.964M135 112.44V107.474" stroke="#4498EE" stroke-width="2.5" stroke-linecap="round"/>
<path d="M137.236 55.2168V41.9853C137.236 40.7674 138.137 39.7801 139.248 39.7801L213.715 39.7801C214.826 39.7801 215.728 40.7674 215.728 41.9853V55.2168" stroke="#4498EE" stroke-width="2.5"/>
<path d="M137.4 41.55L135 57.48" stroke="#4498EE" stroke-width="2.5" stroke-linecap="round"/>
<path d="M215.4 40.3701L218.4 55.7101" stroke="#4498EE" stroke-width="2.5" stroke-linecap="round"/>
</svg>
