<svg width="306" height="296" viewBox="0 0 306 296" fill="none" xmlns="http://www.w3.org/2000/svg">
<path d="M281.36 47.7707C242.391 17.9241 204.593 42.2486 162.433 33.6482C119.969 24.9856 103.051 -3.85809 54.6851 9.45606C11.841 21.2498 -14.1555 68.5351 9.39741 108.123C16.1092 119.404 27.5431 127.914 32.2158 140.537C39.7532 160.899 28.28 176.531 30.5181 196.542C39.8182 279.686 167.276 247.481 214.175 221.613C287.727 181.044 337.484 90.7576 281.36 47.7707Z" fill="url(#paint0_linear_1905_57780)" fill-opacity="0.3"/>
<path opacity="0.24" d="M245 17C242.822 17 240.645 16.1707 238.987 14.5133C235.671 11.198 235.671 5.80293 238.987 2.48697C242.302 -0.828989 247.698 -0.828989 251.013 2.48697C254.329 5.80293 254.329 11.1974 251.013 14.5133C249.356 16.1707 247.178 17 245 17ZM245.001 5.86216C244.324 5.86216 243.649 6.11904 243.134 6.63397C242.106 7.66265 242.106 9.33706 243.134 10.3663C244.163 11.395 245.838 11.3956 246.867 10.3663C247.896 9.33764 247.896 7.66324 246.867 6.63397C246.352 6.11904 245.676 5.86216 245.001 5.86216Z" fill="#FAFCFD"/>
<path opacity="0.24" d="M32.5 205C30.1942 205 27.8878 204.171 26.1329 202.513C22.6224 199.197 22.6224 193.802 26.1329 190.486C29.6434 187.171 35.3566 187.171 38.8671 190.486C42.3776 193.802 42.3776 199.197 38.8671 202.513C37.1122 204.171 34.8058 205 32.5 205ZM32.5 193.862C31.7846 193.862 31.0686 194.119 30.524 194.634C29.4341 195.662 29.4341 197.337 30.524 198.366C31.6132 199.395 33.3868 199.395 34.476 198.366C35.5659 197.337 35.5659 195.663 34.476 194.634C33.9314 194.119 33.216 193.862 32.5 193.862Z" fill="#4498EE"/>
<path opacity="0.48" d="M57.8474 235.328C57.2016 235.71 56.4034 235.834 55.6047 235.608L50.7268 234.23L49.5869 239.169C49.2133 240.786 47.6165 241.73 46.0195 241.279C44.4222 240.828 43.43 239.151 43.8037 237.534L45.6195 229.667C45.9931 228.05 47.5899 227.105 49.1869 227.556L56.9567 229.752C58.5541 230.204 59.5462 231.881 59.1726 233.498C58.9852 234.306 58.4932 234.946 57.8474 235.328Z" fill="#FAFCFD"/>
<path opacity="0.48" d="M275.933 42.0177C275.303 42.4249 274.51 42.5795 273.703 42.3858L268.775 41.2002L267.83 46.1803C267.521 47.8106 265.962 48.8175 264.349 48.4298C262.735 48.0415 261.678 46.405 261.987 44.7747L263.492 36.8419C263.802 35.2116 265.36 34.2048 266.974 34.5925L274.824 36.481C276.438 36.8692 277.495 38.5058 277.185 40.1361C277.03 40.9509 276.564 41.6105 275.933 42.0177Z" fill="#1E65AE"/>
<g filter="url(#filter0_dddd_1905_57780)">
<rect x="78.5" y="75.4062" width="104.081" height="127.075" rx="8" transform="rotate(-17.5626 78.5 75.4062)" fill="#FBFCFE"/>
</g>
<path fill-rule="evenodd" clip-rule="evenodd" d="M154.541 122.586L145.03 123.833C143.28 124.063 141.673 122.828 141.444 121.078C141.215 119.328 142.449 117.722 144.199 117.493L153.709 116.246C155.459 116.016 157.066 117.251 157.295 119.001C157.525 120.751 156.291 122.357 154.541 122.586ZM145.861 130.174L164.883 127.681C166.636 127.451 168.239 128.685 168.468 130.435C168.698 132.185 167.467 133.791 165.714 134.021L146.692 136.515C144.942 136.744 143.336 135.51 143.106 133.76C142.877 132.01 144.111 130.403 145.861 130.174ZM174.294 139.346L139.773 143.871C138.803 143.998 137.92 143.392 137.806 142.517L131.572 94.9619C131.457 94.0869 132.153 93.2733 133.124 93.1461L150.386 90.8832L151.695 100.87C152.348 105.853 156.737 109.399 161.483 108.777L171.901 107.412L175.849 137.53C175.963 138.405 175.267 139.218 174.294 139.346ZM157.133 93.1529L167.081 101.594L160.652 102.437C159.403 102.601 158.23 101.526 158.035 100.039L157.133 93.1529ZM176.722 101.388L156.97 84.6286C156.28 84.0449 155.381 83.779 154.484 83.8966L132.292 86.8057C127.825 87.3913 124.659 91.4246 125.231 95.7933L131.465 143.348C132.038 147.717 136.137 150.797 140.604 150.212L175.125 145.687C179.592 145.101 182.762 141.067 182.189 136.699L177.825 103.41C177.722 102.621 177.328 101.902 176.722 101.388Z" fill="#CBD5E0"/>
<g filter="url(#filter1_dddd_1905_57780)">
<rect x="98.8418" y="57.0948" width="104.081" height="127.075" rx="8" transform="rotate(-0.715089 98.8418 57.0948)" fill="#FBFCFE"/>
</g>
<path d="M152.5 129C148.643 129 144.873 127.856 141.666 125.714C138.46 123.571 135.96 120.526 134.484 116.962C133.008 113.399 132.622 109.478 133.375 105.696C134.127 101.913 135.984 98.4387 138.711 95.7115C141.439 92.9844 144.913 91.1272 148.696 90.3748C152.478 89.6224 156.399 90.0086 159.962 91.4845C163.525 92.9604 166.571 95.4598 168.714 98.6665C170.856 101.873 172 105.643 172 109.5C172 114.672 169.946 119.632 166.289 123.289C162.632 126.946 157.672 129 152.5 129ZM152.5 96.5001C149.929 96.5001 147.415 97.2626 145.278 98.691C143.14 100.119 141.474 102.15 140.49 104.525C139.506 106.901 139.248 109.515 139.75 112.036C140.251 114.558 141.49 116.874 143.308 118.693C145.126 120.511 147.442 121.749 149.964 122.25C152.486 122.752 155.099 122.494 157.475 121.511C159.85 120.527 161.881 118.86 163.309 116.723C164.738 114.585 165.5 112.071 165.5 109.5C165.5 106.052 164.13 102.746 161.692 100.308C159.254 97.8698 155.948 96.5001 152.5 96.5001Z" fill="#CBD5E0"/>
<path d="M181.75 155C180.888 155 180.061 154.652 179.452 154.034C178.842 153.415 178.5 152.575 178.5 151.7C178.5 145.574 176.103 139.698 171.837 135.366C167.57 131.034 161.784 128.6 155.75 128.6H149.25C143.216 128.6 137.43 131.034 133.163 135.366C128.897 139.698 126.5 145.574 126.5 151.7C126.5 152.575 126.158 153.415 125.548 154.034C124.939 154.652 124.112 155 123.25 155C122.388 155 121.561 154.652 120.952 154.034C120.342 153.415 120 152.575 120 151.7C120 143.823 123.082 136.269 128.567 130.699C134.053 125.129 141.492 122 149.25 122H155.75C163.508 122 170.947 125.129 176.433 130.699C181.918 136.269 185 143.823 185 151.7C185 152.575 184.658 153.415 184.048 154.034C183.439 154.652 182.612 155 181.75 155Z" fill="#CBD5E0"/>
<path d="M152.468 154.999C152.042 155.002 151.62 154.919 151.227 154.758C150.833 154.596 150.474 154.357 150.172 154.055L146.939 150.801C146.586 150.442 146.319 150.006 146.162 149.526C146.005 149.045 145.961 148.535 146.034 148.035L149.267 125.254C149.267 124.391 149.608 123.564 150.214 122.953C150.82 122.343 151.643 122 152.5 122C153.357 122 154.18 122.343 154.786 122.953C155.392 123.564 155.733 124.391 155.733 125.254L158.966 148.035C159.039 148.535 158.995 149.045 158.838 149.526C158.681 150.006 158.414 150.442 158.061 150.801L154.828 154.055C154.518 154.365 154.149 154.608 153.744 154.77C153.338 154.932 152.904 155.01 152.468 154.999Z" fill="#CBD5E0"/>
<path opacity="0.48" d="M262 173C259.824 173.001 257.647 172.171 255.99 170.513C254.384 168.907 253.5 166.772 253.5 164.5C253.5 162.229 254.384 160.093 255.99 158.487C259.303 155.171 264.696 155.171 268.01 158.487C269.616 160.093 270.5 162.229 270.5 164.5C270.5 166.772 269.616 168.907 268.01 170.513C266.354 172.171 264.177 173 262 173ZM262 161.862C261.325 161.862 260.649 162.119 260.135 162.634C259.636 163.132 259.362 163.795 259.362 164.5C259.362 165.205 259.637 165.868 260.135 166.366C261.164 167.396 262.837 167.396 263.866 166.366C264.365 165.868 264.638 165.205 264.638 164.5C264.638 163.795 264.364 163.133 263.866 162.634C263.352 162.119 262.676 161.862 262 161.862Z" fill="#CBD5E0"/>
<defs>
<filter id="filter0_dddd_1905_57780" x="15.5391" y="17.0391" width="263.496" height="278.48" filterUnits="userSpaceOnUse" color-interpolation-filters="sRGB">
<feFlood flood-opacity="0" result="BackgroundImageFix"/>
<feColorMatrix in="SourceAlpha" type="matrix" values="0 0 0 0 0 0 0 0 0 0 0 0 0 0 0 0 0 0 127 0" result="hardAlpha"/>
<feOffset dy="1.575"/>
<feGaussianBlur stdDeviation="1.87891"/>
<feColorMatrix type="matrix" values="0 0 0 0 0.415686 0 0 0 0 0.654902 0 0 0 0 0.772549 0 0 0 0.03 0"/>
<feBlend mode="normal" in2="BackgroundImageFix" result="effect1_dropShadow_1905_57780"/>
<feColorMatrix in="SourceAlpha" type="matrix" values="0 0 0 0 0 0 0 0 0 0 0 0 0 0 0 0 0 0 127 0" result="hardAlpha"/>
<feOffset dy="7.2"/>
<feGaussianBlur stdDeviation="5.28125"/>
<feColorMatrix type="matrix" values="0 0 0 0 0.415686 0 0 0 0 0.654902 0 0 0 0 0.772549 0 0 0 0.08 0"/>
<feBlend mode="normal" in2="effect1_dropShadow_1905_57780" result="effect2_dropShadow_1905_57780"/>
<feColorMatrix in="SourceAlpha" type="matrix" values="0 0 0 0 0 0 0 0 0 0 0 0 0 0 0 0 0 0 127 0" result="hardAlpha"/>
<feOffset dy="18.225"/>
<feGaussianBlur stdDeviation="14.168"/>
<feColorMatrix type="matrix" values="0 0 0 0 0.415686 0 0 0 0 0.654902 0 0 0 0 0.772549 0 0 0 0.12 0"/>
<feBlend mode="normal" in2="effect2_dropShadow_1905_57780" result="effect3_dropShadow_1905_57780"/>
<feColorMatrix in="SourceAlpha" type="matrix" values="0 0 0 0 0 0 0 0 0 0 0 0 0 0 0 0 0 0 127 0" result="hardAlpha"/>
<feOffset dy="36"/>
<feGaussianBlur stdDeviation="32.5"/>
<feColorMatrix type="matrix" values="0 0 0 0 0.415686 0 0 0 0 0.654902 0 0 0 0 0.772549 0 0 0 0.16 0"/>
<feBlend mode="normal" in2="effect3_dropShadow_1905_57780" result="effect4_dropShadow_1905_57780"/>
<feBlend mode="normal" in="SourceGraphic" in2="effect4_dropShadow_1905_57780" result="shape"/>
</filter>
<filter id="filter1_dddd_1905_57780" x="33.9414" y="26.8951" width="235.46" height="258.166" filterUnits="userSpaceOnUse" color-interpolation-filters="sRGB">
<feFlood flood-opacity="0" result="BackgroundImageFix"/>
<feColorMatrix in="SourceAlpha" type="matrix" values="0 0 0 0 0 0 0 0 0 0 0 0 0 0 0 0 0 0 127 0" result="hardAlpha"/>
<feOffset dy="1.575"/>
<feGaussianBlur stdDeviation="1.87891"/>
<feColorMatrix type="matrix" values="0 0 0 0 0.415686 0 0 0 0 0.654902 0 0 0 0 0.772549 0 0 0 0.03 0"/>
<feBlend mode="normal" in2="BackgroundImageFix" result="effect1_dropShadow_1905_57780"/>
<feColorMatrix in="SourceAlpha" type="matrix" values="0 0 0 0 0 0 0 0 0 0 0 0 0 0 0 0 0 0 127 0" result="hardAlpha"/>
<feOffset dy="7.2"/>
<feGaussianBlur stdDeviation="5.28125"/>
<feColorMatrix type="matrix" values="0 0 0 0 0.415686 0 0 0 0 0.654902 0 0 0 0 0.772549 0 0 0 0.08 0"/>
<feBlend mode="normal" in2="effect1_dropShadow_1905_57780" result="effect2_dropShadow_1905_57780"/>
<feColorMatrix in="SourceAlpha" type="matrix" values="0 0 0 0 0 0 0 0 0 0 0 0 0 0 0 0 0 0 127 0" result="hardAlpha"/>
<feOffset dy="18.225"/>
<feGaussianBlur stdDeviation="14.168"/>
<feColorMatrix type="matrix" values="0 0 0 0 0.415686 0 0 0 0 0.654902 0 0 0 0 0.772549 0 0 0 0.12 0"/>
<feBlend mode="normal" in2="effect2_dropShadow_1905_57780" result="effect3_dropShadow_1905_57780"/>
<feColorMatrix in="SourceAlpha" type="matrix" values="0 0 0 0 0 0 0 0 0 0 0 0 0 0 0 0 0 0 127 0" result="hardAlpha"/>
<feOffset dy="36"/>
<feGaussianBlur stdDeviation="32.5"/>
<feColorMatrix type="matrix" values="0 0 0 0 0.415686 0 0 0 0 0.654902 0 0 0 0 0.772549 0 0 0 0.16 0"/>
<feBlend mode="normal" in2="effect3_dropShadow_1905_57780" result="effect4_dropShadow_1905_57780"/>
<feBlend mode="normal" in="SourceGraphic" in2="effect4_dropShadow_1905_57780" result="shape"/>
</filter>
<linearGradient id="paint0_linear_1905_57780" x1="209.431" y1="293.4" x2="334.265" y2="29.6322" gradientUnits="userSpaceOnUse">
<stop stop-color="#E1E8F2"/>
<stop offset="1" stop-color="#E2E8F0" stop-opacity="0"/>
</linearGradient>
</defs>
</svg>
