<svg width="348" height="350" viewBox="0 0 348 350" fill="none" xmlns="http://www.w3.org/2000/svg">
<path d="M39.4873 230.568H41.9509V233.029H44.4145V235.491H46.8781V233.029H49.3416V230.568H51.8052V228.106H49.3416V225.645H46.8781V223.184H44.4145V225.645H41.9509V228.106H39.4873V230.568V230.568ZM44.4145 228.106H46.8781V230.568H44.4145V228.106Z" fill="#00DFA9"/>
<path d="M174.184 346.163C269.904 346.163 347.5 268.672 347.5 173.082C347.5 77.4913 269.904 0 174.184 0C78.4636 0 0.867188 77.4913 0.867188 173.082C0.867188 268.672 78.4636 346.163 174.184 346.163Z" fill="#F7FAFC"/>
<path d="M345.5 197.858C326.39 189.731 301.509 185.841 285.958 191.513C271.39 196.828 273.721 207.383 258.753 211.749C234.607 218.784 217.884 194.399 181.95 195.558C149.981 196.587 138.878 216.675 114.75 211.749C99.6877 208.666 96.8372 199.417 86.1134 192.857C68.1495 181.901 33.6597 182.012 0.5 188.282C3.41921 229.204 17.7147 263.699 51.6108 296.47C90.3499 333.923 127.412 348.259 181.95 345.715C244.22 342.811 286.241 318.38 319.688 267.171C335.558 242.874 342.285 222.54 345.5 197.858Z" fill="url(#paint0_linear_1909_57025)" fill-opacity="0.5"/>
<g filter="url(#filter0_dd_1909_57025)">
<rect width="221.051" height="141.168" transform="translate(65.5 105.336) rotate(-4.4982)" fill="white"/>
<path d="M92.1486 129.37L76.8813 130.571C76.1315 130.63 75.4698 130.064 75.4109 129.315L74.2098 114.047C74.1508 113.298 74.716 112.636 75.4657 112.577L90.733 111.376C91.4827 111.317 92.1444 111.882 92.2034 112.632L93.4045 127.899C93.4635 128.649 92.8983 129.311 92.1486 129.37Z" stroke="#B4C5D2" stroke-width="1.5"/>
<path d="M138.053 107.653L106.053 110.171C104.952 110.257 104.13 111.22 104.216 112.321L105.061 123.056C105.148 124.157 106.11 124.979 107.212 124.893L139.211 122.375C140.312 122.289 141.135 121.326 141.048 120.225L140.204 109.49C140.117 108.389 139.154 107.567 138.053 107.653Z" fill="#D9E5EE"/>
<path d="M275.971 96.8032L154.004 106.398C152.902 106.485 152.08 107.448 152.167 108.549L153.011 119.283C153.098 120.385 154.061 121.207 155.162 121.12L277.129 111.525C278.231 111.439 279.053 110.476 278.966 109.375L278.122 98.6402C278.035 97.539 277.072 96.7166 275.971 96.8032Z" fill="#D9E5EE"/>
<path d="M94.1915 155.339L78.9242 156.54C78.1745 156.599 77.5128 156.033 77.4538 155.284L76.2527 140.016C76.1938 139.267 76.7589 138.605 77.5087 138.546L92.776 137.345C93.5257 137.286 94.1874 137.851 94.2464 138.601L95.4474 153.868C95.5064 154.618 94.9413 155.28 94.1915 155.339Z" stroke="#B4C5D2" stroke-width="1.5"/>
<path d="M140.096 133.622L108.096 136.14C106.995 136.226 106.173 137.189 106.259 138.29L107.104 149.025C107.19 150.126 108.153 150.948 109.255 150.862L141.254 148.344C142.355 148.258 143.178 147.295 143.091 146.194L142.247 135.459C142.16 134.358 141.197 133.536 140.096 133.622Z" fill="#D9E5EE"/>
<path d="M278.014 122.772L156.047 132.367C154.945 132.454 154.123 133.417 154.21 134.518L155.054 145.252C155.141 146.354 156.104 147.176 157.205 147.089L279.172 137.494C280.274 137.408 281.096 136.445 281.009 135.344L280.165 124.609C280.078 123.508 279.115 122.686 278.014 122.772Z" fill="#D9E5EE"/>
<path d="M96.2345 181.307L80.9672 182.509C80.2175 182.568 79.5558 182.002 79.4968 181.253L78.2957 165.985C78.2367 165.236 78.8019 164.574 79.5516 164.515L94.8189 163.314C95.5687 163.255 96.2303 163.82 96.2893 164.57L97.4904 179.837C97.5494 180.587 96.9842 181.249 96.2345 181.307Z" stroke="#B4C5D2" stroke-width="1.5"/>
<path d="M142.139 159.591L110.139 162.109C109.038 162.195 108.216 163.158 108.302 164.259L109.147 174.994C109.233 176.095 110.196 176.917 111.298 176.831L143.297 174.313C144.398 174.227 145.221 173.264 145.134 172.163L144.29 161.428C144.203 160.327 143.24 159.505 142.139 159.591Z" fill="#D9E5EE"/>
<path d="M280.057 148.741L158.09 158.336C156.988 158.423 156.166 159.386 156.253 160.487L157.097 171.221C157.184 172.323 158.147 173.145 159.248 173.058L281.215 163.463C282.317 163.377 283.139 162.414 283.052 161.313L282.208 150.578C282.121 149.477 281.158 148.655 280.057 148.741Z" fill="#D9E5EE"/>
<path d="M98.2775 207.276L83.0102 208.478C82.2604 208.537 81.5987 207.971 81.5398 207.222L80.3387 191.954C80.2797 191.205 80.8449 190.543 81.5946 190.484L96.8619 189.283C97.6116 189.224 98.2733 189.789 98.3323 190.539L99.5334 205.806C99.5924 206.556 99.0272 207.217 98.2775 207.276Z" stroke="#B4C5D2" stroke-width="1.5"/>
<path d="M144.182 185.56L112.182 188.078C111.081 188.164 110.259 189.127 110.345 190.228L111.19 200.963C111.276 202.064 112.239 202.886 113.341 202.8L145.34 200.282C146.441 200.196 147.264 199.233 147.177 198.132L146.333 187.397C146.246 186.296 145.283 185.474 144.182 185.56Z" fill="#D9E5EE"/>
<path d="M282.1 174.71L160.133 184.305C159.031 184.392 158.209 185.355 158.296 186.456L159.14 197.19C159.227 198.292 160.19 199.114 161.291 199.027L283.258 189.432C284.359 189.346 285.182 188.383 285.095 187.281L284.251 176.547C284.164 175.446 283.201 174.624 282.1 174.71Z" fill="#D9E5EE"/>
<path d="M100.32 233.245L85.0531 234.446C84.3034 234.505 83.6417 233.94 83.5827 233.191L82.3817 217.923C82.3227 217.174 82.8878 216.512 83.6376 216.453L98.9049 215.252C99.6546 215.193 100.316 215.758 100.375 216.508L101.576 231.775C101.635 232.525 101.07 233.186 100.32 233.245Z" stroke="#B4C5D2" stroke-width="1.5"/>
<path d="M146.225 211.529L114.225 214.047C113.124 214.133 112.302 215.096 112.388 216.197L113.233 226.932C113.319 228.033 114.282 228.855 115.383 228.769L147.383 226.251C148.484 226.165 149.307 225.202 149.22 224.101L148.376 213.366C148.289 212.265 147.326 211.443 146.225 211.529Z" fill="#D9E5EE"/>
<path d="M284.143 200.679L162.175 210.274C161.074 210.361 160.252 211.324 160.338 212.425L161.183 223.159C161.27 224.261 162.232 225.083 163.334 224.996L285.301 215.401C286.402 215.315 287.225 214.352 287.138 213.25L286.294 202.516C286.207 201.415 285.244 200.592 284.143 200.679Z" fill="#D9E5EE"/>
</g>
<path d="M303.106 47.1475H267.931C266.837 47.1484 265.754 46.9339 264.744 46.5164C263.733 46.0988 262.815 45.4865 262.042 44.7143C261.269 43.9421 260.656 43.0252 260.237 42.0162C259.819 41.0071 259.605 39.9256 259.605 38.8336V38.8336C259.604 37.741 259.818 36.6589 260.236 35.6491C260.653 34.6393 261.266 33.7217 262.04 32.9488C262.813 32.176 263.732 31.563 264.742 31.1451C265.753 30.7272 266.837 30.5125 267.931 30.5133H303.106C304.201 30.5108 305.287 30.7242 306.3 31.1412C307.313 31.5582 308.233 32.1707 309.009 32.9436C309.785 33.7164 310.4 34.6345 310.82 35.6452C311.24 36.6559 311.456 37.7393 311.456 38.8336V38.8336C311.454 41.0391 310.576 43.1538 309.014 44.7128C307.451 46.2718 305.333 47.1475 303.125 47.1475H303.106Z" fill="#D9E5EE"/>
<path d="M294.785 36.129C296.401 29.356 292.212 22.5574 285.43 20.9438C278.648 19.3303 271.84 23.5128 270.224 30.2858C268.609 37.0588 272.797 43.8574 279.579 45.471C286.361 47.0846 293.169 42.902 294.785 36.129Z" fill="#D9E5EE"/>
<path d="M21.8653 239.378C18.3459 239.378 15.4424 242.279 15.4424 245.795C15.4424 249.312 18.3459 252.212 21.8653 252.212C25.3847 252.212 28.2882 249.312 28.2882 245.795C28.2882 242.279 25.3847 239.378 21.8653 239.378ZM21.8653 241.136C24.4169 241.136 26.5285 243.246 26.5285 245.795C26.5285 248.345 24.4169 250.454 21.8653 250.454C19.3138 250.454 17.2021 248.345 17.2021 245.795C17.2021 243.246 19.2258 241.136 21.8653 241.136Z" fill="#00D29C"/>
<defs>
<filter id="filter0_dd_1909_57025" x="30.5" y="67.9998" width="301.441" height="228.07" filterUnits="userSpaceOnUse" color-interpolation-filters="sRGB">
<feFlood flood-opacity="0" result="BackgroundImageFix"/>
<feColorMatrix in="SourceAlpha" type="matrix" values="0 0 0 0 0 0 0 0 0 0 0 0 0 0 0 0 0 0 127 0" result="hardAlpha"/>
<feOffset dy="5"/>
<feGaussianBlur stdDeviation="7.5"/>
<feColorMatrix type="matrix" values="0 0 0 0 0.00784314 0 0 0 0 0.2 0 0 0 0 0.396078 0 0 0 0.08 0"/>
<feBlend mode="normal" in2="BackgroundImageFix" result="effect1_dropShadow_1909_57025"/>
<feColorMatrix in="SourceAlpha" type="matrix" values="0 0 0 0 0 0 0 0 0 0 0 0 0 0 0 0 0 0 127 0" result="hardAlpha"/>
<feOffset dy="15"/>
<feGaussianBlur stdDeviation="17.5"/>
<feColorMatrix type="matrix" values="0 0 0 0 0.00784314 0 0 0 0 0.2 0 0 0 0 0.396078 0 0 0 0.08 0"/>
<feBlend mode="normal" in2="effect1_dropShadow_1909_57025" result="effect2_dropShadow_1909_57025"/>
<feBlend mode="normal" in="SourceGraphic" in2="effect2_dropShadow_1909_57025" result="shape"/>
</filter>
<linearGradient id="paint0_linear_1909_57025" x1="172.997" y1="288.494" x2="167.003" y2="183.815" gradientUnits="userSpaceOnUse">
<stop stop-color="#FEFEFD"/>
<stop offset="0.916375" stop-color="#D9E5EE"/>
</linearGradient>
</defs>
</svg>
