<svg width="14" height="20" viewBox="0 0 14 20" fill="none" xmlns="http://www.w3.org/2000/svg">
<g clip-path="url(#clip0_53_567)">
<path d="M3.26986 20C5.07411 20 6.53844 18.5066 6.53844 16.6666V13.3333H3.26986C1.4656 13.3333 0.00128174 14.8266 0.00128174 16.6666C0.00128174 18.5066 1.4656 20 3.26986 20Z" fill="#0ACF83"/>
<path d="M0.00128174 10C0.00128174 8.16002 1.4656 6.66669 3.26986 6.66669H6.53844V13.3333H3.26986C1.4656 13.3333 0.00128174 11.84 0.00128174 10Z" fill="#A259FF"/>
<path d="M0.00128174 3.33333C0.00128174 1.49333 1.4656 0 3.26986 0H6.53844V6.66666H3.26986C1.4656 6.66666 0.00128174 5.17333 0.00128174 3.33333Z" fill="#F24E1E"/>
<path d="M6.53845 0H9.80703C11.6113 0 13.0756 1.49333 13.0756 3.33333C13.0756 5.17333 11.6113 6.66666 9.80703 6.66666H6.53845V0Z" fill="#FF7262"/>
<path d="M13.0756 10C13.0756 11.84 11.6113 13.3333 9.80703 13.3333C8.00278 13.3333 6.53845 11.84 6.53845 10C6.53845 8.16002 8.00278 6.66669 9.80703 6.66669C11.6113 6.66669 13.0756 8.16002 13.0756 10Z" fill="#1ABCFE"/>
</g>
<defs>
<clipPath id="clip0_53_567">
<rect width="13.0769" height="20" fill="white"/>
</clipPath>
</defs>
</svg>
