<svg width="350" height="83" viewBox="0 0 350 83" fill="none" xmlns="http://www.w3.org/2000/svg">
<path d="M188.123 26.0446V46.2793C188.123 51.4883 186.319 55.8958 182.813 59.3017C179.408 62.6073 175.401 64.3102 170.693 64.3102C165.584 64.3102 161.176 62.6073 157.67 59.1013C154.164 55.6955 152.461 51.4883 152.461 46.4797V24.9427C152.461 23.1397 152.962 21.8374 153.964 20.8357C154.966 19.834 156.168 19.3331 157.57 19.3331C158.973 19.3331 160.175 19.834 161.076 20.7355C162.078 21.8374 162.579 23.2398 162.579 24.9427V46.5798C162.579 48.8838 163.28 50.7871 164.783 52.2896C166.285 53.7922 168.188 54.5936 170.492 54.5936C172.396 54.5936 174.098 53.8924 175.601 52.5901C177.204 50.9874 178.005 48.984 178.005 46.3795V24.9427C178.005 23.1397 178.506 21.8374 179.408 20.8357C180.409 19.834 181.611 19.3331 183.014 19.3331C185.017 19.3331 186.52 20.1345 187.421 21.8374C187.922 22.6388 188.123 24.0412 188.123 26.0446Z" fill="#023365"/>
<path d="M216.371 19.0326C220.378 19.0326 223.683 19.9342 226.488 21.6371C228.993 23.34 230.295 25.1431 230.295 27.1465C230.295 28.7493 229.894 30.0515 228.993 30.9531C228.091 31.8546 227.089 32.2553 225.787 32.2553C225.086 32.2553 224.284 31.9548 223.483 31.3537C222.682 30.7527 221.88 30.1517 221.179 29.5507C219.376 28.1483 217.673 27.4471 216.171 27.4471C214.668 27.4471 213.466 27.8477 212.564 28.6491C211.563 29.4505 211.162 30.352 211.162 31.4539C211.162 33.4574 212.965 34.8598 216.571 35.7613C222.181 37.1637 226.088 38.7665 228.392 40.6697C231.196 42.8735 232.599 46.079 232.599 50.186C232.599 54.2931 231.096 57.6989 228.191 60.4035C225.286 63.1082 221.48 64.4104 216.972 64.4104C212.164 64.4104 208.157 63.3085 204.851 61.0046C201.846 58.901 200.243 56.4969 200.243 53.7922C200.243 52.49 200.644 51.2879 201.646 50.3864C202.547 49.3847 203.649 48.8838 204.951 48.8838C206.554 48.8838 208.257 49.7853 210.26 51.4883C212.765 53.692 215.069 54.8941 217.072 54.8941C218.675 54.8941 219.977 54.3932 220.979 53.4917C221.981 52.5902 222.481 51.3881 222.481 49.8855C222.481 48.2828 221.58 47.0807 219.777 46.2793C219.176 45.9788 216.972 45.1774 212.965 44.0756C208.958 42.8735 206.153 41.5713 204.45 40.0687C202.347 38.2656 201.345 35.6611 201.345 32.3555C201.345 28.4488 202.748 25.2433 205.552 22.8392C208.257 20.2347 211.863 19.0326 216.371 19.0326Z" fill="#023365"/>
<path d="M254.136 24.9427V36.6628H270.464V24.9427C270.464 23.1397 270.965 21.8374 271.966 20.8357C272.968 19.834 274.17 19.3331 275.673 19.3331C277.175 19.3331 278.377 19.834 279.279 20.8357C280.28 21.8374 280.681 23.2398 280.681 24.9427V58.5003C280.681 60.3034 280.18 61.6056 279.179 62.6073C278.177 63.609 276.975 64.1099 275.572 64.1099C274.17 64.1099 272.968 63.609 271.966 62.6073C270.965 61.6056 270.464 60.2032 270.464 58.4001V45.8786H254.136V58.4001C254.136 60.2032 253.635 61.5054 252.633 62.6073C251.631 63.609 250.429 64.1099 249.027 64.1099C247.625 64.1099 246.422 63.609 245.421 62.6073C244.419 61.6056 243.918 60.2032 243.918 58.5003V24.9427C243.918 23.1397 244.419 21.8374 245.421 20.8357C246.422 19.834 247.625 19.3331 249.027 19.3331C250.429 19.3331 251.631 19.834 252.533 20.7355C253.635 21.7373 254.136 23.1397 254.136 24.9427Z" fill="#023365"/>
<path d="M325.959 28.7493L313.337 41.0704L327.762 54.3932C329.665 56.1963 330.567 57.7991 330.567 59.2015C330.567 60.6039 330.066 61.806 329.064 62.7075C328.062 63.609 326.86 64.1099 325.458 64.1099C324.056 64.1099 322.553 63.3085 320.85 61.7058L304.021 45.8786V58.5003C304.021 60.3034 303.52 61.6056 302.519 62.7075C301.517 63.7092 300.315 64.2101 298.912 64.2101C297.51 64.2101 296.308 63.7092 295.306 62.7075C294.305 61.7058 293.804 60.3034 293.804 58.5003V24.8426C293.804 23.0395 294.305 21.6371 295.306 20.6354C296.308 19.6337 297.51 19.1328 298.912 19.1328C300.315 19.1328 301.517 19.6337 302.418 20.5352C303.42 21.6371 303.921 23.0395 303.921 24.8426V36.4625L318.646 21.6371C320.349 19.9342 321.952 19.0326 323.354 19.0326C324.757 19.0326 325.959 19.5335 326.86 20.435C327.862 21.4367 328.263 22.5386 328.263 23.941C328.563 25.4436 327.662 27.0464 325.959 28.7493Z" fill="#023365"/>
<path d="M339.883 58.5003V24.9427C339.883 23.1397 340.384 21.8374 341.385 20.8357C342.387 19.834 343.589 19.3331 344.991 19.3331C346.394 19.3331 347.596 19.834 348.497 20.7355C349.499 21.8374 350 23.2398 350 24.9427V58.5003C350 60.3034 349.499 61.6056 348.497 62.6073C347.496 63.609 346.294 64.1099 344.891 64.1099C343.489 64.1099 342.287 63.609 341.285 62.6073C340.384 61.6056 339.883 60.2032 339.883 58.5003Z" fill="#023365"/>
<path d="M103.177 63.7092C100.372 63.7092 98.0681 61.4053 98.0681 58.6005V24.8426C98.0681 22.0378 100.372 19.7338 103.177 19.7338C105.982 19.7338 108.286 22.0378 108.286 24.8426V58.7006C108.286 61.5054 105.982 63.7092 103.177 63.7092Z" fill="#023365"/>
<path d="M149.957 79.937C148.655 79.937 147.453 79.4362 146.451 78.5346L111.491 44.7768C109.488 42.8735 109.388 39.668 111.291 37.6646L128.52 19.6337C130.424 17.6302 133.629 17.5301 135.733 19.4333C137.736 21.3366 137.836 24.5421 135.933 26.6457L122.21 40.9702L153.563 71.2221C155.567 73.1254 155.667 76.431 153.663 78.4345C152.662 79.4362 151.359 79.937 149.957 79.937Z" fill="#00E6B2"/>
<path d="M74.3274 16.2278L42.4728 49.2845C40.7699 51.0876 37.8649 51.0876 36.0618 49.3847L19.7338 33.858C17.9307 32.1551 17.8306 29.15 19.5335 27.3469C21.2364 25.5438 24.1414 25.4436 26.0446 27.1465L39.067 39.5678L68.0166 9.61649C60.8042 3.60618 51.5884 0 41.4711 0C18.5318 0 0 18.5318 0 41.4711C0 64.4104 18.5318 82.9422 41.4711 82.9422C64.4104 82.9422 82.9422 64.4104 82.9422 41.4711C82.9422 31.9548 79.7367 23.2398 74.3274 16.2278ZM55.0944 61.3051H24.4419C21.9376 61.3051 19.834 59.2015 19.834 56.6972C19.834 54.1929 21.9376 52.0893 24.4419 52.0893H55.0944C57.5987 52.0893 59.7023 54.1929 59.7023 56.6972C59.7023 59.3017 57.6989 61.3051 55.0944 61.3051Z" fill="#00E6B2"/>
</svg>
